<mxfile host="app.diagrams.net" agent="Mozilla/5.0 (Windows NT 10.0; Win64; x64) AppleWebKit/537.36 (KHTML, like Gecko) Chrome/138.0.0.0 Safari/537.36" version="27.1.6">
  <diagram name="PÃ¡gina-1" id="j-VFtO_u4erndtj9fjSQ">
    <mxGraphModel dx="1186" dy="747" grid="1" gridSize="10" guides="1" tooltips="1" connect="1" arrows="1" fold="1" page="1" pageScale="1" pageWidth="827" pageHeight="1169" math="0" shadow="0">
      <root>
        <mxCell id="0" />
        <mxCell id="1" parent="0" />
        <mxCell id="P95oDodgm_lWHTKzFJ_f-1" value="" style="shape=image;verticalLabelPosition=bottom;labelBackgroundColor=default;verticalAlign=top;aspect=fixed;imageAspect=0;image=data:image/png,iVBORw0KGgoAAAANSUhEUgAAAgAAAAIACAYAAAD0eNT6AAAABHNCSVQICAgIfAhkiAAAAAlwSFlzAAAN1wAADdcBQiibeAAAABl0RVh0U29mdHdhcmUAd3d3Lmlua3NjYXBlLm9yZ5vuPBoAACAASURBVHic7N13eBRV2wbwe3aTTe8BEjqEkiqK0rEiiqhYQCzYsGFFsdGrdBBFFCtiw4KIIgICAi8oXWp6QggtEALpPdnd+f4I+FmSsLtzNjObuX/XlUshc565U9h5ds7MGUmWZdhKkiRPAP0B3A6gA4DmAMIB+NtchIjIfjKA8wBOAzgD4CCAVQB2y/a8iBHRXyRb/u1IkhQNYCJqDvw+zg5FRGSjMwCWAZgty3Ku2mGIXEm9DYAkSS0ATAPwCABjQ4UiIrJTIYC5AN6SZblc7TBErqDOBkCSpBsAfA8guEETERE57iCAQbIsn1Q7CJHWGWr7S0mSngGwHjz4E5FruRzAHkmSeqgdhEjr/nMG4MLBf7E6cYiIhCgB0EeW5cNqByHSqn80ABdO+68H4KZaIiIiMY4D6CbL8jm1gxBp0V8NwIUL/g6Dp/2JqPHYKsvydWqHINKiv18DMA08+BNR43KtJEn3qB2CSIskWZYv3ud/GLzVj4gan3QA0bIsm9UOQqQlF88ATAQP/kTUOHUEMEztEERaY7iwvO/tagchInKioWoHINIaA2rW9ufyvkTUmPWTJMlP7RBEWmIA3/0TUePngZo3O0R0gQE1T/UjImrs+FpH9DcG1DzSl4ioseNrHdHfGACEqx2CiKgB8LWO6G/cAPgrLbJ281b4+vL6GiL6r6Sjx7FtX7yiGsdTErB99XKlURS/1hE1JkLW/Pf19YOfP/9tEdF/efv4wuTppaiGm7u7iCiSiCJEjUWtjwMmIiKixo0NABERkQ6xASAiItIhNgBEREQ6xAaAiIhIh9gAEBER6RAbACIiIh1iA0BERKRDbACIiIh0iA0AERGRDrEBICIi0iE2AERERDrEBoCIiEiH2AAQERHpEBsAIiIiHXJTO0B9UpKScHD/n0iIP4y0lBSEhzdHTFwcomPj0KN3H7iLeUb4JR3LPIp9e/cgKSEeyQkJ8A8MRExsHGLiLkOP3n3g4+PTIDnOZmdj766dSIw/jMSEw3B3NyEm7rKaHL16IzAoqEFyFOTnY/fOHTU54g+juroKMbE1Obr17IVmYWENkqO0tBS7d2y/8P2IR1FBAaJiYxEdG4cru3VH23btGyQHEZErkgDISots27Mffv7+AuLUKC4qwryZ07H6p5V1btOhYye8MWc+IqOjhe3336qqqvDBooX4/NNPYLVYat0mLLw5Jk2fiV59+joth9VqxTdffo5331qAioryWrcJCAjE6ImTcMttg5yWAwDW/fIz5rwxDYWFBbV+3tPTCy+8/Arue/BhGAzOO8G0c/sfmDZhHLLPnK718waDAQ8NfxzPjnwJJg8Pp+WgS4tPz8TmPQcV1chMPIitK5cpjbJeluUBSosQNRaaawAO7PsTo0eNxLmcnEtuazQa8dxLL2P4kyOE7PvvThw/hpefewYZR9Jt2n7Ivfdj3JRpkCRJaI78vDy88sKzOLDvT5u2v/7G/pg1/y14eHoKzVFZUYGxr47Clt822rT9FVdehTcXLUZQcLDQHLIsY+aUSVjx3Tc2bd+2fQQWLFqMdhERQnOQ7dgAEGmTpq4BKC4qsvngDwAWiwXvvDkPO37fJjSHxWLB2FdG2XzwB4AV332D75Z9KTQHALwxabzNB38A2PLbRry3cIHwHO8tXGDzwR+oaeTemDReeI7vln1p88EfAI4dzcCYV16C2WwWnoWIyJVpqgGYP2uGzQf/v5s6YSyKi4qE5fj0w/eRlBBv97h33pyHUydOCMuxZtVPdh10L1r2+Wc4dGC/sByHDuzHss8/s3vclt82Ys2qn4TlOHXiBN55c57d49JSkvHJB4uF5SAiagw00wCkJCXh5x9/cGhsztmzWPrxh0Jy5OXm4qPF7zo0try8HIvemi8kh9VqxbyZ0x0eO3/WDCE5gJrGzGq1OjR23szpDo/9t0VvzUd5ee3XQFzKkg8WIy83V0gOIqLGQDMNwMH9tp/mro2od7xJCfGKThfbc7q+PseOHq3zQjtbJCcmoLKiQnGOyooKJCcmODy+sLAAx44eVZwDUPa9NZvNDp3VISJqrDTTACTEH1Y0PiUpUcg7TSUHOwA4l5Pj0DSG6BwWiwUpyUmKc6QkJ8FSxx0QtlL6tQBivq8ichARNRaaWQcgJTFR0fiysjKcOnkCrdu0VVQnNTlZ0XgASE5KQJOmNyjLkaL84J2clIguV3RVXEOp1JQk3HrHnQpzKD94i/jZ1sdqtSLzaAYyMzJg0dFFhyFNmiAqJrbB1sMgIjE00wCUlZUprlFe5tj88D9qlAvIUaqRr6W0VBs1hHwtAr6nAn62tdm8cQOWfb4UyYkJDl+j4OoMBgPatGuHa667ASOeHwkvLy+1IxHRJWimASByNUVFhZg9bSrW/fKz2lFUZ7VakZlRc/Zj08b1mDJjNq7s1l3tWERUD81cA0DkSsrKyjBsyF08+Nfi1IkTePLhYdi0cb3aUYioHmwAiBywYPZMoWs+NDayLGPG5Im89ZJIw9gAENlp5/Y/8MPyb9WOoXn5eXmYOWWS2jGIqA5sAIjstGrlCrUjuIxNG9ejrLRE7RhEVAs2AER2Sk7gegL2OJZxRO0IRFQLNgBEdigtKcHJE8fVjuFSjh1JUzsCEdVCMw2Af4DyxwmLqOEXEMAarFGn4uIiyLLiJ2jrSmkJpwCItEgzDUBUTKyi8X7+/ghv3kJxjs6RUYprREXHKK4RrfD70dhqiPieivjZhoU3R0BAoOI6etK6fYTaEYioFpppAJQeJES8uANA56hoRePDwpsjKDhYcQ6lDZGbmxs6dOqsOEeHTp3h5qZsvSilXwsABAUHIyy8uaIaSn+2F0XGKG9G9KRdREe1IxBRLTTTAFzVvScMRqPD47v36i0kR0xcnKI1zXv27iMkR4uWLdGyVSuHx3e9qhtMJpPiHCaTCV2v6ubw+JatW6NFy5aKcwDKvrc+Pj6IiYsTkuOq7j2E1NGDsPBwNAkLVzsGEdVCMw1Au4gIPPLYEw6NjejQEY88/qSQHAEBgRg1eqxDY4OCg/Hiq68LyQEAE9+YCUmS7B5n8vDA2MlTheUYO2mKQ82EJEmYPH2WsBwjX3kNgUFBDo196fUxwk7dPzz8cbTv0EFIrcZu0vRZDv0OE5HzaaYBAICnnx+JtnbOF7q5ueGNufOFvNu9aPDQ+9C779V2jxs/ZZrDB6jadO/ZC4Pvvd/ucc+/9DLatmsvLEfb9hF4+oUX7R537wMPCn23HBQcjDETp9g9rmfvvhjiwPexLiYPD0yfMx9GBWes9OCe+4ehV5++ascgojpoqgEweXhgwaLF6Bxl23x+QEAgZi94W8gFYv82bc489Oxt24uXycMDr44dj343DRCeY9TrY3DLbYNs2tZgNGL4kyMw7JHhwnM88tgTGPbIcBgMtv3KDLprMF58TdzZkItuHngrRr7yms0NX+++V2P6vPnCc0TFxGL2goXw91d+Z0FjNOiuwXh59Bi1YxBRPSQAiu9p2rZnP/z8ld+Cd5HZbManH76Pj99/D+Y6nqve99rrMHn6TIQ2aSpsv7X5Yfm3eGvOLJTW8VjcuC5dMG3WXLvPXNhr88YNmDGl7rXV27Zrj2mz5yKuy+VOzXFw/z5MGTcGx49l1vr5kJBQTHxjBq69oZ9Tc2QcScfksaORGH+41s/7+Phg1OixGDz0PqfmOJeTgynjx2DH79ucuh9XERLaBJOmz8A1193w19/Fp2di856DiupmJh7E1pXLlMZbL8uy+C6dyEVpsgG4KPf8OSTExyMlMQEZR9LRLCwMnSOj0Tk6Gh0FXOFuq8LCAiTGxyM1OQmpKcnw9w9AVHQMIqOj0TkyStHFi/YoKytDYvxhpCYnIyU5Ee7u7oiMikFUTAwio2OEToPUp6qqCilJiUhOTERKciKqq6sRGRWDzlFRiIm7DN7e3g2Sw2qxIDUlGSlJSUhOSkRRUSE6d45E5+gYxMTFNejtepkZGUhOSkBKUiIyjx6F1WJpsH2rLTg0FFHRMYiKiUVUTAw8Pb3+8Xk2AETapOkGgIhcHxsAIm3S1DUARERE1DDYABAREekQGwAiIiIdYgNARESkQ2wAiIiIdIgNABERkQ6xASAiItIhNgBEREQ6xAaAiIhIh9gAEBER6RAbACIiIh1iA0BERKRDbACIiIh0iA0AERGRDrEBICIi0iE3EUXS01Lh4+MrohQRNTInTmQhL/u0oholhfmC0hDRRRIAWe0QREQNYL0sywPUDkGkFZwCICIi0iE2AERERDrEBoCIiEiH2AAQERHpEBsAIiIiHWIDQEREpENsAIiIiHSIDQAREZEOsQEgIiLSITYAREREOsQGgIiISIfYABAREekQGwAiIiIdYgNARESkQ2wAiIiIdMhNRJGw8HBIEnsJIvqvarMZFZVVimqYq6tQUVYqKBERAYIagOWr1sDP319EKSJqZOLTM7F5z0FFNTITD2LrymWCEhERwCkAIiIiXWIDQEREpENsAIiIiHSIDQAREZEOsQEgIiLSITYAREREOsQGgIiISIfYABAREekQGwAiIiIdYgNARESkQ2wAiIiIdIgNABERkQ6xASAiItIhNgBEREQ6xAaAiIhIh1ymATCbzWpHAABYLBa1IwAArBYLZFlWOwZkWYZVI98TrfxsiIhcgZvaAepiNpvx04rlOHhgP5ITE3Ds6FGEhIYiKjoWkTExuGvIPQgLb+70HLIsY90vP+PPPbuRnJiAjPR0ePv4ICo6FlGxsRh4+yB06NjJ6TkAYPu2rfh96xYkJSQgLTUFbm5uiIyKRlRMDG68+RZ0uaJrg+Q4dGA/flu/DsmJiUhJToLZbEanzpGIjo3F1ddejz7XXNsgOY6kp2Ht6p+RnJCA5KQElJWWIqJjR0TFxOLKbj0w8PZBkCSpQbIQEbkaCYDit5Hb9uyHn7+/gDg10lNTMHHMa0hNTq5zGx9fX7w+fiIG3TVY2H7/LfvMGUweNxp7du6ocxt3d3c8/cKLePTxJ2EwGp2So6ioEHPemIa1q1fVuY0kSRj2yKN4/qVX4OHp6ZQclRUVePftN7Hs88/qPfsw8PY7MHriJPj7Bzglh9ViwWdLPsYHixaiurq6zu269eiJqbPmILx5C6fkINvEp2di856DimpkJh7E1pXLlEZZL8vyAKVFiBoLzTUAa1b9hKkTxtb7wv53A269HbPefEvIvv9u3949eOnZESgpLrZp+y5XdMWHS78QfvDNzMjAiOEP4VxOjk3bt23XHku++gbBISFCc+Tl5uLxB+/HscyjNm3fpGlTfLj0S7SLiBCao7KiAiOGP4xDB/bbtL2Pjw/eXLQYPXr3EZqDbMcGgEibNHUNQNapU5gxZaLNB38A+HXNaqz49muhOUpLSjDh9VdtPvgDNafF31u4QGgOi8WC8a+/YvPBHwCOZR7FzCmThOYAgJlTJtl88AeAczk5GP/6K8Ln5d9buMDmgz8AlJaWYuKY11BcVCQ0BxGRq9NMAyDLMqaOH4Py8nK7x741dzZOnTwpLMu8mdORfea03eOWff6ZXQenS1nywWIkJybYPW7TxvVYv3aNsBzr167Bpo3r7R6XnJiAJR8sFpbj0IH9WPb5Z3aPO5eTg3kzpwvLQUTUGGimAdi3dw/27t7l0NiysjJ8vuRjITlOZ53CqpUrHBprtVrx0XuLhOSoqqrCkg/fd3j8B4sWCsmhtNaSD99HVVWVkBwfvbcIVqvVobGrf1qJ01mnhOQgImoMNNMAxB9SNkeYGH9YSI6kBPvfcf9dwmExOY6kpSo6cB4/linktHdxURGOH8t0eHxVVRWOpKUqzgEo/94q/dkSETUmmmkAEuPjFY0/kpYqZK0AR065/11RUSFOnjiuPEdSoqLxsiwjKUHZ9xQAkhLiFa83oPRrAYCTJ46jqKhQWQ6FP1siosZEM+sApKemKBpfXV2NE8eOoX2HDorqZKSnKRoPAGmpKWjVuo2iGkfSRORIVXz1e1qq8nfvYr4WZb8fgJifbV2sFgsyM48iJTERmUczHJ6qcEXBIaGIiolBZFQ0fHx91Y5DRDbSTANgz5X/Wq9hrhJQQ0SOauVz72JqaON7KuJnW1vN9995G998+QUqKuy/gLUxkSQJV1x1FSa9MRNt2rZTOw4RXYJmpgCIXE1aSjKGDbkLSz/+UPcHf6Bm2mn/3r24987b8fUX9S8WRUTq08wZACJXcjY7G088PIzrC9SisqIC82ZOh9lsxsOPPaF2HCKqA88AEDlg6vgxPPhfwnsL30JmRobaMYioDmwAiOy0auUK7Nz+h9oxNK+qshKTxr6udgwiqgMbACI7bflto9oRXEbC4UMoyMtTOwYR1YINAJGdUgSsa6AnxzLS1Y5ARLVgA0Bkh7zcXJzNzlY7hkthA0CkTZppAJo0baq4RmjTJsprNFGeo0nTZgJqaCVH4/laRPxsiYgaC800ANExsYrGhzZpipCQUMU5IqOjFY03GAyIjIlRnCNK4fcDAKJj45TniNVGjs7R0TAYlP26Kv3ZAkBwSAiahYUprqMnbSM6qh2BiGqhnQYgTtlBIkrAQRcAOkcqO0i0adcO3t7einNEKzzwenl5oW379opztGvXHl5eXopqiGgAfHx80LpNW0U1IqPF/I6IqqMXbACItEkzDUDP3n3h4+Pj8Pgbbx4gJEd0XCzCwsMdHt9/wEAhOUJCm6DLFV0dHt/v5gGK3zEDgMFoxHX9+js8vmu3bggOCVGcAwD63XSzw2PDm7dQfJbpoutvdPz7oTexl3VBYHCw2jGIqBaaaQCaNG2KUaPHOjS299XXYNBdg4Xk8PT0wpQZsyFJkt1jIzp0xBNPPyskBwBMmTkbJg8Pu8eFhITi1THjheV4ffxEhw7iHp6emDx9lrAcTz37PNpFRDg0dvL0mfDw9BSS4467h6BXn75CajVmJg8PTJs1V+0YRFQHzTQAADB46H3o2du+F1Y/f3+hBxkA6NG7D4Y+MMyuMQajEVNnzYG7u7uwHG3btcfzL71s97ixU6YiIDBQWI7AoCCMmzzV7nHPvfiy4tP2f3fxgGIwGu0ad/fQexU/FfHfJs+YDT9/f6E1G5vnXhzlcMNGRM6nqQYAAOYtXIQ7h9xj07aR0dFY8uXXaNpM+RXi//bq2Al48pnnYLThYNO8RUu8/8lSxMRdJjzHg48+htETJsHT89Lz8IFBQZi9YCH69Xf8VHld+t00ALMXLERgUNAlt/X09MLoCZPw4KPDheeIvawL3v9kKZq3aHnJbQ1GI4Y/9TRGT5gsPEezsDB88sUydOwcKby2q/Pw9MRr4ybgoeGPqx2FiOqhuQbA188Pk6fPwuIln6FV6za1buPt7Y2nnx+JL5evdNoLsJubG559cRS+XP4Douq46Mvk4YGhDwzD96vXonuv3k7JIUkS7nvwYSz/+Rd069Gz1nl9o9GImwfeipVr1uPmgbc6JQeAf+yjtsbIYDCgW4+eWP7zL7jvwYcdmkaxRfdevfH96rUY+sCwOqdIoqJj8OV3KzDy5VdhMpmckqNTZBSWrfgRw58cYVOD1thJkoSu3brhu59W44GHH3Xaz5+IxJAAKH5m57Y9+512OjT3/DkkJsTjSFoamoWFIzomFm3atRNygZs9CgsLkJKYiOSkRAQEBCI6Ng4RHTvCza1hH6hYWlqK1KQkJCUmwGQyISomFp0jIx26VkCJqspKpKakIDkxAVVVVYiOiUXn6GhFF3I6wmw2IyM9HUkJ8SgsLEBUdAwiY2IQECBuCsQWVosFmZlHkZKYiMyjGbBarQ26fzUFh4QiKiYGkVHR8PH1/c/n49MzsXnPQUX7yEw8iK0rlymqAWC9LMtirhYmagQ03wAQkWtjA0CkTZqbAiAiIiLnYwNARESkQ2wAiIiIdIgNABERkQ6xASAiItIhNgBEREQ6xAaAiIhIh9gAEBER6RAbACIiIh1iA0BERKRDbACIiIh0iA0AERGRDrEBICIi0iE2AERERDrEBoCIiEiH3EQUWbXyB3h6eogoRUSNTFZOLlKPnVRU4/yZU4LSENFFEgBZ7RBERA1gvSzLA9QOQaQVnAIgIiLSITYAREREOsQGgIiISIfYABAREekQGwAiIiIdYgNARESkQ2wAiIiIdIgNABERkQ6xASAiItIhNgBEREQ6xAaAiIhIh9gAEBER6RAbACIiIh1iA0BERKRDbACIiIh0yE1EkX79b4abu5BSRNTIFBSXIicvX1GNksICnDt1XFAiIgIENQCTZ8yCn7+/iFJE1MjEp2di856DimpkJh7EVjYAREJxCoCIiEiH2AAQERHpEBsAIiIiHWIDQEREpENsAIiIiHSIDQAREZEOsQEgIiLSITYAREREOsQGgIiISIfYABAREekQGwAiIiIdYgNARESkQ2wAiIiIdIgNABERkQ6xASAiItIhN7UD2KK0pAQZR9LRLCwczcLCVMtRWVGB9LRUBAQGomWr1pAkSZUcZrMZR9LSYDKZ0LZ9exgMrtnHWSwWnMvJwbmcHBQXFwGyrHYkcoLMrGxkZRxVVCPv7GkRUUIlSRogohCRk1UDyAaQJctygbN2otkGIPf8Oby38C0c+PNPHD+WCfnCwSE4JARRMbF49ImncFX3Hk7PUVpSgg/fewe7duzA0SPpsFgsAAA/f39ERcdgyH0PoP+AW5yeo7q6Gks/+gBbt2zGkbRUVFVVAQC8vLwQGR2DgbcPwuB771etKbmUqqoq7Nm5A1s2bURSQjzOnc1Bfn4erFar2tFIP64EsE7tEET2kCSpHMBpAMcArAfwkyzL6UJqA1D8tmvbnv3w8/cXEKfGmp9XYd6MN1BYWHfjI0kS7n3gQYx89XV4eXkJ2/ff7fjjd7wxcRyyz5ypd7t+Nw3AuMlTERwS4pQcyUmJmDT6NRxJT6t3u6u698DkGbPRslUrp+Swl9lsxqb1v2LzbxuwfdtWlJaWqh2JiKgxSALwE4BvZFlOcLSI5hqAt+fNwedLPrZ5+46dOuOr71fC5OEhZP8XfbfsK8x+Y4rN2weHhOC7n1YjtElToTl2/PE7Ro544q8zD5fi5eWFz79bgY6dOgvNYa+Nv67DogXzcfLEcVVzEBE1YjKArwBMkGX5hL2DNTV5fHD/Pny5dIldY9LTUvHu228KzXHqxAm8PW+OXWPycnMxffJEoTlKS0rwxsRxNh/8AaC8vByTx7xu1xiR9u3dg4eGDsbrL73Agz8RkXNJAB4CkCpJ0lxJkgLtGayZBqCyogJTxo1xaE542eef4cC+P4XkkGUZk8ePRkVFud1jt27ehLWrVwnJAQBvzpl5yemH2iQnJWLpxx8Ky2GL6upqTJ0wFk889AASDh9q0H0TEemcJ4DXAKRJknStrYM00wBs/30bjh/LdGis1WrFd8u+FJIjLSUF+/fudXj8N19+ISRHWVkZVv2wQkGOz4XksEVebi5GPPoQflrxfYPtk4iI/qMJgI2SJI2wZWPNNADJiQ5fxwAASElKEpIjJTlR0fi01BQhp99Tk5MUXSGfl5uLs9nZinNcSnpqCh68525hZ2CIiEgRdwAfSJK0SJKkeu/000wDkKSwATh54jjKysoU50hNTlY0vqqyEkfS6r9a3xZKGyIASEqIV1yjPonxh/HIfffgzOksp+6HiIjs9jyA7yVJqvM4r5kG4ISDp/8vslqtyDpp90WQ/81x/Jgmajg6HSI6R13O5eRg1HNPo7zc/msliIioQdwJYGZdn9RMA2CxKF8QxmpVvpKcLGBhGquAKQCriO+Hk+4EqKyowEvPjsC5nByn1CciImFGS5L0YG2f0EwDQK5jyvixTp9eICIiYT6RJOk/S+eyASC7rF/zC35ds1rtGEREZDsPAF9JkuT+979kA0A2M5vNwhddIiKiBtEBwJN//ws2AGSzFd9+jVMnT6odg4iIHDNJkiTfi39gA0A2KS0txUeL31U7BhEROa4ZgFcu/oENANlkxbdfIz8vT+0YRESkzCuSJHkDQL2rBDUkEc+xF1BCTJHGVOOC39b/KqzWv7m5+8LTu4nT6hMRqc1iNsMq23Z7t2ytRlXlecDG7e3kB+BmAD9qpgFo1aYNTmedcni8JElo0bKV4hwtWymv0bpNm0aTA6hZ9Ccx/rCQWheFhvdE01bXwy+wAzx9woTWJiLSGou5GufPngJk29arsVqrUFmWhfLSY8g9vQEWc4nIOHdCSw1ATGwcdu/Y7vD4Vq3bwMfX99IbXkJUTKyi8SaTCR07R6qeAwBi4i5TXAMA/rdpI2Qbf2kvxc3dFx27PI2mra4XUo+IyBUY3dzh7eOHspIim7Y3GEzw8m0HL992CAjphuxj36I4X9iTVm+TJMmomWsAlB6somKVHzABIFrhgbdTZBTc3JT3VVHRMYrGB4eEICy8ueIcALDlt41C6pg8g3FVv8U8+BORLnl6+zk0zujmixYdnkCTlreLihIM4BrNNAA9evdRdMC64+4hQnJ06NgJ0bFxjucYLCaHn78/+vW/WUGOe4TkAID9gp701+mKkfDwChFSi4jI1bibPGAwGh0eHxLeH95+HUTF0U4D4OPjg0nT63xmQb0GD70Pvfr0FZLDYDRi6qw5cHd3v/TG/9K9V28MHnqfkBwAMG7KNAQFB9s9rn2HDnj6+ZFCMhQWFqCyokJxnbA2/RES1k1AIiIi1+Xh6aNgtITwdsNgMJhERGmhmQYAAHr16Ysh995v15iWrVvj5THjhObo0LETnnnhRbvG+Pr5YcqMWULuZrgoOCQE46e+YVdNd3d3TJ05ByaTkF8QYQ/8adnhTiF1iIhcmbvC12Z3j1D4Bgm5vqu5phoAoOZd7+gJk+Dl5XXJbW+5bRCWrfgR3t7ewnMMf+ppzH7zbQQGBV1y2+69emP5ql8Q3ryF8Bz9+t+Mj79YhpatW19y26joGCxb8SNiepqHeAAAIABJREFUL+sibP85Z88qrmEwesDb79L5iYgaO4PB8SmAizx9hLyetjACmKK0yvAnR8DDw0N5HNTczhd7WRfcPPA25J4/h6KiQpSVlv71eS8vL1x2+RV4dewEPPHMs/Dw8BSy39p06NQJg+4ajKKiQhQXFaG46P+v3jSZTIiKicWTzz6P18dNhJ+/v9NyNG/RAncNGQqz2YyiokIUFRb+dVW+0WhEp8hIPPDwo5g6ay5CmzQVuu/9f+7F/zb9pqiGf3BnhLd1/HoGIqLGQpZllJcWK6xiReH5XUqjGCQAiu/v2rZnv1MPgOdycpCWkoyw5s3Rrn0EDAZ1TlwUFhQgOSkBAQGB6Ng5UsjV/o4oLS1FcmIC3N3dERkVDQ9P5zVBn33yERbOn6uoRnjbm9HpCjHXJBARuTKL2Yzz2ScU1ihF+oExSqPImlkHoD5NmjZFk6Zi39k6IiAwED17i7nYUAkfHx9c1f0/j3Z2CtkqYCUqSXMzTURE6hCyYq2Q11S+MhMREekRGwAiIiIdYgNARESkQ2wAiIiIdIgNABERkQ6xASAiItIhl7gNkEgpWbaiurIAVmu12lGIyGVJcDf5wugmfvVZNbABoEZIRlFeKs6f3omC84dQWX4eVZUFgKx4zSsiIhiNnjB5BsPbrxVCm/dESFh3uHsEqh3LbmwAqNGwWqqQdfRnnDqyClUVeWrHIaJGymKpQHnpaZSXnkZu9m5AkhDU5Aq0i34IfkGd1I5nMzYA1ChkH9+IY8lfobL8vNpRiEhvZBn5OfuRn7MfTZr3QfvYx+DpE6Z2qktiA0AuzWqpQuqBhcg5+T+1oxAR4dzp7cg/dxDR3ccgqGlXtePUi3cBkMuqqsjDwd9H8+BPRJpiri5F/I7JyMr4We0o9WIDQC7JaqlE/I7JKM5PUzsKEdF/yLIVRw5/iOzjG9SOUic2AOSSUvYtQEnhUbVjEBHVK+3geyjKS1E7Rq3YAJDLycpYhXNZf6gdg4jokmSrGYm7p8NcXap2lP8QchHgm7Nnwt3dXUQp0pjUlCS1I/xDdVUxjiUvUzsGEZHNqirycSL1W7SPfVztKP8gpAFYtXKFiDJEl3Q85WtNdtJERPXJyliN5u1vg7tHiNpR/sIpAHIZ1VXFOJ25Vu0YRER2s1qrcTLtB7Vj/AMbAHIZedl7IVvNascgInLI+TM7AGhnSXI2AOQycrN3qx2BiMhhVRX5mrp1mQ0AuYy8s/vVjkBEpEh+zj61I/yFDQC5hOqqYljMZWrHICJSpKIsR+0If2EDQC6BD/khosZAS08q5cOAyCUIaQCMRsDTS3kdInI9sgxYLcpqWGWgqlJRiaqKfGUZBGIDQC7BYi5XXuSKnsDsD5XXISLXU5ALJCu8juhMFrB4vqISFnOFsgwCcQqAiIhIh9gAEBER6RAbACIiIh1iA0BERKRDbACIiIh0iA0AERGRDrEBICIi0iEh6wCMeH4kPEwmEaVIY/7cuwc7ft+mdgwiIhJMSAMw7OFH4efvL6IUaRAbACKixodTAERERDrEBoCIiEiH2AAQERHpEBsAIiIiHWIDQEREpENsAIiIiHSIDQAREZEOCVkHgIiISBhZBpIOAVvWAXu2AZIEePkAvn5A/0HAjbcDRqPaKV0eGwAiItKOrOPAhOeBk5m1f/7gHuCLxcADTwK33tOw2RoZTgEQEZE2JB8GRj5Y98H/orOngbemAt983DC5Gik2AEREpL6E/cCrjwGF+baPWbIQ2Piz8zI1cmwAiIhIXYX5wPRXgcoK+8e+OanmjADZjQ0AERGpR5aBWWOA8zmOjTebgU1rxGbSCTYARESknm8/Af7crqzGpl/EZNEZNgBERKSO+H3A0kXK6xzPAPLOK6+jM5q/DbCyogIpyUlIS0lGWHhzRMfFISQktMFzmM1mpKelIjkhAQGBAYiJuwxh4c0bPIfVakXm0Qwkxh+Gu7s7Yi/rgpatWkOSpAbPQkTksMJ8YMZrgNUqpp6np5g6OqLZBuDQgf2YP2sGkhMTYLFY/vG5sPBwDHvkMTzw8CMwGJx7EiMzIwOzp0/FwX1/oqqq6h+fCw4JwR2D78HTz4+EyWRyao7z53Iwd8Yb2L5tK8rKyv7xOX//APQfcAteem00fP38nJqDiEgxWQZmj3V83v/fLi4URHbR3BRAZUUFFsyZiceG3YeEw4f+c/AHgOwzZ/Dm7Bl48uFhOHXihFNyWK1WfPHpJ7jv7kHYs3PHfw7+AJCXm4ulH32A++8ehITDh5ySAwDWrPoJg2+9BRt/Xfefgz8AFBUV4ofl32LI7bdgx+/bnJaDiEiIbz8B9v4hrl5gcE0TQHbRXAMw9tVR+HLpp7DacFpo/5978fB9Q5CXmys8x6IF8/HW3Nmoqqy85LZHjxzBY8PuQ3pqivAc33+zDBNGv4qiosJLbns2OxvPPfkYmwAi0i5R8/5/N3CI2Ho6oakGYN0vP2PLbxvtGpOfl4cZUyYKzXH44AF88ekndo2prq7G5LGjaz1j4ahTJ0/irbmz7R43beI4lBQXC8tBRCSE6Hl/APDwBO5+UFw9HdFMA1CQn485b0xzaOzmjRuwfo2Y20Cqq6sxcfRrNp2B+LfkpER8vkTc0pRTxo1GeXm53ePOZmfj7XlzhOUgIlJM9Lz/RbcNBQKCxNbUCc00ALt37kBhYYHD4zf8ulZIjtTkJJw4fszxHOvELEiRl5uLfXv3ODx+46/rIMuykCxERIp9t0TsvD8AtO0APDZSbE0d0UwDkBh/WNH45MREITlSkpTVOZKWhsoKB5azFJyjqKgQp0465wJJIiK7JOwHPn1HbE1PL2DSgpopAHJIo2kAzpzOQmGB42cQLkpKTFA03mKxICU5SfUcAJx6ZwIRkU0urvMvct4fAF6cCLRuL7amzmimAcg+c0ZxjbPZImpkK64h5mvRRg4iIoc5a95/wF1A/0Fia+qQZhoAEfPVQqa8RRRpTDWIiBzlrHn/F8aLralTmmkAiIioEUnYL/5+f877C8UGgIiIxLo47y9wXRQAnPcXjA0AERGJI8vAnHGc93cBbACIiEic75YAe34XW5Pz/k7BBoCIiMTgvL9LYQNARETKXVznn/P+LsNN7QAXubkpj+LmLqCGm7tGcoj4fij/WogaBVkGigoAczVglQHZWrMwjSxf+O+F/7dY/vl3F7eV5ZpHzjYJA4xGtb8a7bk473/urNi6nPd3Ks00AO07dMDJE8cdHm80GtGqVWvFOdq2b49t/9usqEb7iI6Kc7Tv0EF5jQjlNYhchtUK5JwBTp8Ask5e+O8J4PRJ4MwJwIZHe1+SwQCENAGaNgeaNQeahl/4b9j//9nbR/l+XM13n3Le3wVppgGIjonF1s2bHB7frn0ETB4einN0jopSNN7b2xtt2rVTnCMqJlYTNYg0xVwNZGf9/4E96wRw5sJ/s08BZrNz92+11rzLPXcWSDxQ+zZ+/n9rDC40BZ2igegugEn5a5TmJB4AlnKdf1eknQYgNk7R+MiYGCE5oqKVHTQjo2NgMCi/tKJT50i4ubnB7OALWlh4OIJDQhTnIFJV3vmaC8vi9wHx+4GjqeLXlBetuKjmIyP1n3/vbqppAi7vXvMRdRkgYMpRVUUFvN/fhWmmAejd92rEXtbFoQfYmEwmDH9ihJAc7SIi0H/ALdj46zqHxj/57HNCcpg8PPDoE0/hkw8WOzT+qWdfEJKDqEFlZwEH91w46O8HshyfFtSc6irg0N6aj8/fq3l3G3vF/zcEnWJd6/qCi+v8c97fZWmmATAYjZg2ay7uu3sQquycq3vupZeFzJlfNG7yNOzfuxe5ueftGjd46H3o2buvsBxPPfcCtm7ehPS01Etv/De9+16Nu+4ZKiwHkdPIMpCeBGzfDOzYDGSmq52o4VRWAPt21nwAgJc3EHfl/zcEHaJqrjnQKs77uzzNNABAzbvvV8eMw+zp02C18ZTS1dddjwcffUxojsCgIEydNQevjHwOlRUVNo3p2DkSo0aPFZrD3d0d02bPw9PDH0ZhoW2POg4Lb45J02cJzUEklLkaOLAb2LEF2LlF/Ipxrqq8rOaAevGg6uMLdOkGXH0T0LdfTYOgFZz3bxQ0117ec/8wfPb1crSLiKh3Oy8vL4yZOAUL3/9IyJz7v/W55losX/ULLu96Zb3bGY1GPPH0s1i24kf4+Ii/+jcyOho/rFmHa2/od8ltBw+9Dyt+WYdmYWHCcxAplnwIWDAZuPtqYOzTwOrvePCvT2lJTZM0Zyww5Bpg5uiaJ+upfQ0E5/0bDU2dAbgorksXfPvjany37Evs/3MvkhLikXP2LHx8fNA5OhrRMbG4d9jDaNmqlVNztG7TFku++gY/rfgeu3duR1JiAk6dOAGThwc6R0YiKiYWdw4ZiqhoMRcg1iUktAneXvwhNqxbi21bNiEpMQHHMzNhMBgQ0bEjomPjcMttg9CtR0+n5iCyW0EesPFn4NcfgeMZaqdxXZUVwOY1NR9BIcD1twA3Dqq5u6Ah8X7/RkWTDQBQc2HfQ8Mfx0PDHwcAFBUVwtfXzynv9utjMBhw99B7cffQewEAJcXF8PL2hlGFi3VuumUgbrplIACgvLwcRoNByK2PREJZrTWnsX9dCeza6vxb8/QmPxdY+VXNR4co4O4HaxoCd5Pz9718KbB7m9ianPdXjWYbgH/z9w9QOwIAwNfPT+0IAGqmQIg0pbKi5p3+is+BM6fUTqMPR5KBueOBjxcAt99b8xHkpNt/Ew8Any4UW9PDE5j4Juf9VeIyDQARaVRhPrDqG+Cnr2vmh6nh5ecCXywGvv4YuGFgzVmBDsoWNfsHZ877t6n/ei9yHjYAROSY0yeB7z8DNvwkZpldUs5cDWxYVfNxZS/g0eeBqC7Kajpr3v/mO4Gb7hBbk+zCBoCI7JOdVfPI181rax6UQ9p0cY2BHtcAjzzv+AWDzpr3HzlBbE2yGxsAIrJNUQGw7KOa0/3marXTkK12b6v56NMPeOQ5oH0n28cmHuS8fyPGBoCI6ldZCfz4JfDNJzX3ppNr2r6pZrXFa24CHhsJtGhT//ac92/02AAQUe1kK7B+FfDZIi7Y01jIMrB1fc0CQ0MfBR4YAdR2K/Ff8/7ZYvfPeX9NYQNARP91JBlYMAVIS1Q7iVAekhFuMMBNkmCEAUZJghskGCUD3GCAEdKFv6v5nBEGVMpmnLaUotBapXZ8caqraqZzfvsFeHZ0zfTA33HeXxfYABDR/6soBz57F1j5pfpLzjoo0OCB9m7+aO8egHZu/hf+3x9t3fwRaHB84axSuRqnzaXIspQiy1yCLEvphT+X4LSlFFnmUpTLLrbo0dnTwOQXay4UfG4s0LwV5/11hA0AEdXYtRV4ZzqQc0btJJfkBgNiTSGIcPdHe7cLB3p3f7RTeJCvj4/kjo7ugejoHljnNvnWSmSZS5BcnY+dldnYWXEGR81FTskj1O5twP5dwD2PABtXc95fJ9gAEOldbg7w3mxg2wa1k9SrnZs/rvNsgeu8WqCvR3P4GtzVjvQfQQYPBJk8EGsKwT0+NY8oP2spw67KbOyoyMbOymykVedDVjlnraqrahYSEo3z/prFBoBIz7aur3lCnwav7vc3mHC1Z/Oag75nC7R208Yy3PZqZvTGHd7tcYd3zZPu8qwV2FVxFjsqz2BnZTaSqvJg1WZLoFybCM77axgbACI9qqwA3p0JrFupdpK/GCHhCo8mfx3wu3o0hRGS2rGECzZ4YqB3Gwz0rrkNr9BahV2V2fihNAPryo+jShZ8+l0tHp7ApAWc99cwNgBEepORAkx/DTiZqXYSAEB3j2Z41DcKN3q1QoChAZ5opzEBBhNu9mqNm71ao8Baie9Lj+Cb0jQkVuWpHU0ZzvtrHhsAIj35cRnw0Zs1870q8pSMuNsnAo/5RiPO5KSn17mgQIMHnvSLwZN+MThUdR5fl6RhZVkGilztFkTO+7sENgBEelBcCMweK/7ebju1dvPDo75RGObbyWlX6zcWXUyh6BIciqlBPfBLWSaWlaZhZ8UZ7V8twHl/lyGkAXhs2H0wGI0iSpHG5OXmqh2BlDqZCUx4Dsg6ocruJQDXerbA437RuNGrFQyNcF7fmTwlI4b4dMAQnw44Zi7CNyXp+K40DWcsZWpH+y/O+7sUIQ3AkfQ0EWWISLQ/twNvvKLKVf5+Bnfc59MJw/2iEOEW0OD7b4zauvljbOCVeD2wK74rScfcwn3aagQ47+9SOAVA1Fj9uAx4f06Dr+gXbPDEKwFX4H7fjvCRtHevfmNghIQHfDvhbp8IfFScgEVFh9W/ToDz/i6HDQBRY2M2A4tmAGu+b9DdGiFhuF8UXgvoyvn9BuIpGTHSvwse8o3EW4UHsbQkWZ3bCDnv75IMagcgIoHKSoDRTzb4wb+PZzg2h9+FGUG9ePBXQZDBA9OCemBH+BAM9olo+Kssysv4xEgXxAaAqLEoKwFGjwAO7W2wXbZ088UnoTdgZdOBiHQParD9Uu1auflicch1+C3sTlzr2aLhdpxzBhj1CHA8o+H2SYqxASBqDMpKgTEjgORDDbI7T8mIVwOuwPbwIbjdu12D7JNsF2sKwfKmA7C86YCGW2ch7xzw8qM1j5Iml8AGgMjVlZcBY58Gkhrm4H+bd1tsDx+C1wK6wlPi7b9adq1nC2wMuxO3eLVpmB0W5gOvDG+w30VShg0AkSu7ePBPPOD0XXV2D8IPTW/BktB+aOnm6/T9kRi7K7OxobwB14AovXAdysE9DbdPcggbACJXVVEOjH8WSNjv1N1IAF7yvxybw+9EX8/mTt0XiZVrrcDT57fA0tDrB5aXAeOeAfb83rD7JbuwASByRZUVNS+wh/906m4CDR74sslNGBt4Jdz4cuFSZADPnd+q3kJBVZXApJHAH7+ps3+6JP6LJnI1lRU17/ydfPDvYgrFb2F3or9XK6fuh5zjnaJD2FJxSt0Q5mpg2svAb7+om4NqxYWAiFxJZWXNuv5Onl990LczZgX1gokX+bmknZXZmFOwT+0YNaxWYM44wMMDuLq/2mnob9gAELmKqkpg4vPAgd1O24WnZMTc4D6416ej0/ZBzqXavH99ZCswewzQJAyIjFM7DV3AKQAiV1BVCUx6Adi/02m7aOfmj3Vhg3jwd2EX5/2ztfSAoIsqLzSwZ0+rnYQuYANApHWyFZg6Cvhzh9N2MdC7DTaE3YFo92Cn7YOcTxPz/vXJz625fkWFp1PSf7EBINK6z94Ddm9zSmk3GDApsDuWht4If4PJKfughqGpef/6HDsCTBsFWFR4aBH9g5BrAOa/8y68vLxFlCKN2bBuLVatXKF2DP3a+wfw9UdOKW2SjPi8yY24wbOlU+pTw3HWvH+o0QvnLeVCawIA9u0E3pkOjJosvjbZTEgD0L1nb/j5+4soRRqTmpykdgT9OpcNzBoDyOIv5uLBv/Fw1rz/A76dMDrgSgzOWYsj1YVCawOoeWJli9bA0OHia5NNOAVApEVmc83900UFwkvz4N+4OGPeP8o9CLOCeiPM6I0fm96KTu6BQuv/5eMFXChIRWwAiLTow3lA8mHhZXnwb1ycMe/vI7nj49Ab/nrQU1OjF35qdqtzLhCVZWDWaCA1QXxtuiQ2AERas3U98OMy4WV58G9cnDXvPze4Nzr+6x1/iMETK5sNdM6jhSsrgSkvAiXF4mtTvdgAEGnJqWPAm5OEl+XBv3GRATx7/n9Omfcf4tOh1s8FGTywouktuNzUROg+AQDnzgILp4mvS/ViA0CkFZWVNff7l5UKLcuDf+OzsOgg/leRJbTmxXn/+gQaPPB90wG4yqOp0H0DALasAzbxmQENiQ0AkVa88waQmS60JA/+jc/OymzMLRD7COh/z/vXx99gwndNBuBKZzQB70wHcs6Ir0u1YgNApAW//gis/0loSR78bVMpW1BorcJZSxmOm4uRVl2ADHMhiqxVakf7j4ac96+Pr8EdX4TeiFZuvkJzoLQEmD22ZvVLcjo+DIhIbRmpwKLpQktKAJaE3qD7g3++tRLp1QU4Ul2IdHMB0qsLkVFdgDxrJSpkMyrl+g+lHpIRoUYvNDV4oYnxwofBCy3dfHC5qQmiTEFwa6D3UWrM+9cn1OiFZU1uwq1nV6PYWi0u0OE/geWfAfc+Jq4m1YoNAJGaKspr7vevrBRa9uWAK3CTV2uhNbWuVK7G7xWnsaU8C0nVeUivLkC+Vdn3tVK2IMtcgizUvna9p2REF1Mouno0RVdTE1xpaoIWot8VX6DWvH99OrsH4ePQGzAsZ4PYsxJLFwFX9QYiIsXVpP9gA0Ckpm8+BrKOCy15nWcLvBpwhdCaWpVeXYDfyk9iU8Up7KrMRnUDnzqukC3YXXkWuyvP/vV3TY1e6OERhtu92+Imr9bwkpS/zO5Qed6/Ptd7tsSM4F4YkyfwYVXmamDmaOD95YDJQ1xd+gc2AERqyc4Cvv9caMnmRh+8H3odDJCE1tUKK2T8ryILv5Ydx6aKUzhl1t5T5XIs5VhdlonVZZnwltwwwLsN7vJuj+s9W8Jdsn+6INdagWc0MO9fn+G+UcioLsTHxYlC6gEAjmfUrBT43FhxNekf2AAQqeXD+UCVuFP/7pIBS5r0Q7DBU1hNrSiwVuKbkjQsLUnGcbPrLBhTJpuxsjQDK0szEGjwwK3ebXGXd3v08Qy3qUmzQtbUvH99pgb1QKa5CL+VnxRX9Kevgd43AFf0EFeT/sK7AIjUcGgv8PtGoSWnBvZAV2cs0qKipOo8vJL3By7P+hZTCva41MH/3wqslVhWkoohOetw1enl+KwkGVVy/Y/EfafokObm/etihIQPQ64Xu2SwLAPvzQasvCvAGdgAEDU0qxV4b5bQknd5R+Bxv2ihNdVihhWryzJx59k1uP7Mj/iqJBXlslntWEJlmUswOm8Hup9ejiXFSaispRHQ8rx/XXwN7vikyQ1Crnv4y7F0YN0P4urRX9gAEDW0NSuAo2nCynVyD8SCkL7C6qlpY/lJXHN6JZ44vxk7K7PVjuN0ZyxlGJe/E91OL8fHxYmouNAInLeUa37evy4RbgGYHNRdbNHP3hW+QiZp/BqA0tJSpCYnISUpERlH0tGsWRg6R0Wjc1Q0wsLDGyxHZUUF0lJTkZqShNTkZPj7+yMqJhaRUdFo2brhbrUym804kpaG1JQkpCQlwd3dHZHR0YiKjkWbdu1gMLCf07ySYuCzRcLK+Uju+DS0H7xFvuNSQXp1ASbl78ZmwY+1dRVnLWWYkL8LC4sO4Tm/OGypyHKJef+6DPeNwoayE+J+nvm5wDefAI+/KKYeAdBoAyDLMpZ/vQwL589BeXl5rdvcctsgjJk0Gf7+AU7NsmHdWsyaNhkF+fm1fr5H7z6YMmMWwsKbOzXHvr17MGnM6zidVfs/qKjoGEybMw8dOnZyag5S6Iv3gMLaf5cc8VbI1U5/R+dMhdYqvFl4AJ+WJDX4LXxadM5SjikFe4TXdda8f33eDrka15xZiQKFazH85YcvgNuHAk0b7s1fY6e5t4zZZ87g6eEPY/YbU+o8+APAul9+xpDbbsHO7X84JUdRUSFGjxqJ0aNG1nnwB4DdO7ZjyO0DsWrlCqfkqK6uxvxZM/Dkw8PqPPgDQHJSIh64+w4s/egDyLLY04YkyImjwKpvhJV7zC8ad3i3E1avIVkh48uSFPQ6/T0+LE7gwd+JnD3vX5dmRm/MC+4jrmBVJfDJ2+LqkbYaAIvFgpeffwZ7du20aftzOTl46ZmncPTIEeFZJo8djQ3r1tq0bWlJCaaMG4Pt27YKz/H+O29j2edLbTqoV1dX450F8/HDd+IOMiTQ4jmApf6rvm3V1OiF8QFXCanV0DLNRRiQ/TNezduOXGuF2nEavYaY96/LIO92YqcdtqwFUuLF1dM5TTUAn370AZITE+waU1VVhQmjX4VF0AsrAKz5eRX+t+k3u8dNmzgOJcXiblOKP3QIn3/6id3j3po7u96zBaSCXVuBP7cLKzcxsDt8De7C6jWUX8qOoX/2TzhUdV7tKLrQkPP+dZkV1AvNjT5iisky8P5cMbVIOw3AyRPH8fHidx0am5yYgK8++1RIjpLiYsydPs2hsTlnz2LRW/OF5ACAKeNHw+pAY1NWVoZZ06YIy0EKmc1CX7Su9GiKe1R+UbdXtWzFhPxdePz8JrEPjqE6qTHvXxt/gwnvhlwrbm3KxAPA1vWiqumaZhqAPbt2orra8ReGHX/8LiRHYvxhFBUVOjxe1DRA9pnTiqY29uzcAbO5cd077bJ+/ErYev8GSJgZ1MulFvrNMpfgjpw1YpeJpXqpNe9flz6e4WLPRHy8oKaxJkU00wAkJ9h36v/fUpOThORITUlWND7r1CkUFhYozpGk8PtRVVWFI2ni7jUnB5mrge/EnJ0CgPt9O+FyU6iwes62qfwU+mX/hH2VOWpH0RU15/3rMj6wm7gFgrKzgK2/iqmlY5ppAJLsnPv/t8KCAmSfOaM4R0qS8kYiJVH5Ox17r4VwVg1SaNsGoCBPSCl/gwnjA13nwr9FRYcx7Nx6xY/kbQhGowT/ADc0CzPBz98Nrrykhhbm/WsTbvTGc/5x4gr+8IW4WjqlmXUA6rvVzlaFBQWKFwgqLFCeQ8TXIqaGmAMPKSDwtr/XA7oixEUe9DOvcD/mFx5QO8ZfmoWbENHRG+07eqNDJ2+06+CFgEA3+Pga4eNjhIfnP4/4sgyUllhQXGRGcZEZhQVmZKSVIS2lDKlJpTiaXo6qKu3duqiVef+6POd/Gb4qSRWzyFFaEpCwH4jtqryWTmmmASBqdDJSgcSDQkp1dg/CcL8oIbWcbWbBn1hYdEjVDO0ivND3+iD0vS4QUbG+8PG1by5ckgBfPyN8/YwIb1HzPPpuvf5/0TGLRcaxjHIkHCrB71vysfP3AlSUq9sQaG2h3sniAAAe6ElEQVTevzbekhvGBV6FkbnbxBRc8QUbAAXYABA5i8B3/zOCesJNOzN2dZqcvxsfFDf81JObm4RuvQJw9Q1B6Ht9EFq09HDq/oxGCRGdvBHRyRt33NMUVZVW7NpeiK0b87Btcz7ychv+Tgd3yQCjpP3fkaE+HbGkOEnMraA7NtdcDxDWQnktHWIDQOQMJcXApl+ElLrVuy2u9nTuUtNKyQDG5+/EkmIxF+PaKrSpCYPva4bB9zdDSBP11kUweRhwzQ1BuOaGIFitwO7tBfhqyRns+kP5BcG2KrBW4oGc9VgbdjuCNTxVJAGYGtQDd55do7yY1Qr8uAx45nXltXRI++0ikSta/xNQqXyVOw/JiGmBPQQEch4ZwGt52xv04N+lqx9mvNURa7Z1xVMjW6p68P83gwHodXUg3vssCsvXdsGgIU1hMjXMS22muQgPndtY6+OFtaSXRxhu9W4rpti6lXxSoIPYABCJJsvA6u+ElBrsE4GWbr5CajnL1II9+LIkpUH21bWbP75YGYdPl8diwO2hcHPT9ooIEZ28MXl2BNZs64obbg5ukH3+WZmDZ3P/B6vgRwmLNj7wKhhErGhRVgL8+qPyOjrEBoBItP27gFPHhJR6wjdGSB1nWVmagfeLnL82e1hzD8x+pxM+/iYGMZdpuyGqlQQcPlDSYLv7pewYpuaLf6qgSBFuAejv1UpMsR+/AvhAKbuxASASTdDFf708whBjaph3jY6Ir8rFqDwxK3DWxdPLgBEjW2HlhsvRf2CIU/flLFYrMOHldJzPqWrQ/X5QnNDg12TY62m/WDGFzpwCdmwRU0tHNNMAeHopv2jFw1P5lb8enspzeHp5NZocZKecM8Cu/wkp9YSfdt/951kr8Oj531DhxLnmq3oGYOWGK/DUyJb/uU/flXy6+BR2b3d8eXElJuTvwvryE6rs2xa9PcMRaxLU2K36VkwdHdHMv6rIKGUvdp6eXmjduo3iHJ0ild9r3TkqWkCOSE3kIDutXl7zlk+h5kYf3OKt/PfZGcyw4onzm3HK7JxT2gYD8NTIlnj/i2g0Czc5ZR8NZd/uIny4SL0nc1ohY8T5LThYdU61DJcyQtRZgIO7gULlC6jpiWYagJg4ZUtEdo6KgsGofAGMqBhlv4whIaGKVyMUkcNgMCiuQXYyVwNrVwgpNdwvCkaNPvJnav4ebK9Qvux2bUKauGPx59EYMbKVSy/HCwB5udUYNyodVou6F+OVy2Y8eG6j0xo2pe7ybo+mRgFnK61W4A/7H+OuZ5r5J9blCmWrOcV16SIkR0xsLAwKXnm6dBWzKlX7iA7w8XH8GdqdIiPhxSmAhrV1vZB3IB6SEQ/5Kj8D5Aw/lmXgIyc91a977wB8u7rLP1bcc1VqzfvX5ZylHK/mbVc7Rq3cJQMe8xV0tnLrBjF1dEIzDUDsZV3Qf8AtDo0NCg7GY089IyRHaJOmeGj44w6NNZlMeO7Fl4XkMBqNeOm10Q6NlSQJo14bIyQH2WHDKiFlBvtEIMjg3JXsHJFvrcTYvJ1OqT3wjiZ4d2kUgkO1cz+/EmrO+9dlS8Up/FyWqXaMWj3iFylmCeNDe4Cihlt8ydVppgEAgLGTpiIo2P6rnsdPfcOhcXV5duRLaNs+wu5xT7/wItp3EPcUriH3PYBeffraPW7wvfejey/tPhCkUSotAQ7tFVJKq7f+Tc3f45Qn+w2+vxmmzusAo1GbUx72Unvevz4T83ehxNrwyxRfSrDBU8wTDC0W4I9NyuvohKYagKDgYMyYtwABAbY9x1qSJDz21NPo1/9moTlMHh6YNf8thIXbvvzqzQNvxSOPPSE0BwBMmTnHrgsTu/Xo6fCZA1Jgz++A2ay4TE+N3vq3qzIb35amCa/74OPNMe6N9i4/33+RVub965JtKcOcwn1qx6jVw6KmvbZxGsBWmvtn16tPX/ywZh2uv7F/vdu1bNUKn3zxNV54+VWn5IiMjsaK1Wtx99B7690uKDgYc99ehNkLFgq5CPHfmjZrhmUrfsSI50fCza3uRzd4eXlh7KSp+PCzLxVdO0AO2rFZSJkn/LR350a1bMVreduFrys3YmQrjBqrzTsdHGG1AhNeET/vL/rMyJLiJCRU5QqtKUIXUyjauvkrL3RgF1CsrekXrdLkw4BCQptgwbvvY+/uXTi4708kxh9GakoKwps3R0xcHKJj43Bdv/5Ov8jNx9cXE6fNwN333Iu9u3chKSEeyYkJ8A8IREzcZYiJi8O11/dDYFCQU3O4ubnh6edHYsCtt2HnH78jMf4wEuPj4e7ujpjLLkNM3GXoe811Qu4+IAeYzTVnABTS6q1/i4vjkVYtdl71oSea46mRLYXWVNun75/C7j/EHng6Rnpj0qwIjHgwCWWlYtZcsEDGa3nbsTZskObuMxnk3Q7vKH2UtMUCbN8MDLhLTKhGTJMNwEXdevREt/9r786jo6zuPoB/n0kyCdkTIAtISCAs2RAim6hogVasxVcqVqVuVU9frFYr1BVFXgUJRRCpCIhrUV99a2u11fa4obYVRQgqWYkoWyBkJ9ssmZn7/hGgLEmYzL0zz/PMfD/n5BxN5vnlmxwy85t773PvpMl6xzj6Yj9G7xjIzBqGzKxhesegU33zZdcaAEkzo4ca7sjfva5WrDqyQ2nNC6Yl4Y57jNfoyNi+tQUb1qid94+ODsPy34/C0KwoLFk1AgvmVUAoGoYpdtZhU1uFumF3RWapaACArmkANgBnZKxnGyIzUrQF6bQo470jXti0Reluf9mjovHYEyOCZs4fODrv/xv18/4Llw7D0KyuHUEvnJ6EX83PUFp/afM2NHjkT6xUaYy1v5ppgOItXUdyU6+C6M+QSCeffyJdwqqF4fwoY03hfO2sx/u2/crqJSVHYPUzoxEdo36tjF78Ne//06tTMXPWgJM+d9Otg/GjS9Wdh9DscWBx0xfK6qlyWXSWfBGXC/hC/u8y2LEBIJJRewioqZYuMzkyFf00Y83IrVV4yp8lTMPKdaOQPth4+xvI8Me8/8icGNz9UGa3X1u8PBuj89Qt8v2/9m+xzVGrrJ4Ks1Q0AABQ+pWaOkGMDQCRjJJiJWWMNvy/z9WKvyncNOa6m9Nx9jlxyuoZgV/m/WPCULRmJKyR3T81R0ZZsGr9aCQlq9swaaOfdnb0lbJpgDIFawmCHBsAIhk71dxTPV3VueiKrG8tgVvRjX8ZmVGYd6exfj5Zfpv3X/Kfef+epKZbccc96tYDvGPbg0aDrQVQMg3wXSVgt8nXCWJsAIhk7JQfARgUFoOREd5tfhUITR4HXm1Ts+mPpgGLlg3v8R2tGflr3v+Ka06f9+/JrCtSUDBWzYhKp/Dg9bYqJbVUmdlPQYPj8QC7jDW6YTTB81dJFGitR4C9u6XLTOtnrOH/51vLYBPyuxoCwJy5aRg3QcFwroG8sL7aL/P+v30w0+vHaxpw7+IsZXdTbGqrVFNIkTHWAWrOBijjOoDesAEg8lXJDqi4MdtI8/924cZzrWVKag1MUTtUbQTbt7Zg/ZPq7owAuub9l/++53n/nuTkx2D2ValKMux2HcFnfjri2RcRmgWF1oHyhbgOoFdsAIh8pWABYDgsmBo1WEEYNd7u+F7ZveG/uHVwUN3y19TYiYV+mPd/cOkwZGT2Pu/fk9sWZCA+Uc3dI38w2CjAhEgFzQ0bgF6xASDylYL5xQmRKYizGOcIXFUr/wemWDH7qhQltYxACODB+d+izg/z/hf/xLt5/+4kJIbjNkUbBL1j2+OX0x59NVFFA9DcCBwy5smMRsAGgMhX38svnPqBgeb/O4QLH9vl9zQAgBv/exCs1uB5enl+XTU+/5fa8xBG9XHevyc/vToVg4f4NoJwIqdw4/V24ywGnBCZquasAq4D6FHw/IUSBdKRpq53F5IuiPL+yGl/+8C2Hw4F2/4OSLHip1ermZs2guIv/TPvX+TDvH93LBZgzlw1v++XDTQNkGCxYlSEgoPWyr+RrxGk2AAQ+WLPt0rKZIcnKKmjwjsde5TUufGXg4Lmtr+mxk48cKf6ef+HHhvu87x/dy6bk6JkxKWqsxlbHDUKEqmhZBqAIwA9Co6/UqJAU9AA9LdEId5iVRBGnlO48aFd/l1uZJQF/3VlcMz9+2vef87cVKV7+gNAYlI4ZlyipuZf2r9TUkcFJQ3APnU7WgYbNgBEvtgjP1c6PMI47/4/sR9Eq6dTus7UaUlBs/LfX/P+CxZmKq15zJyfq5kGKHYa52wAJQ2A3dY1ZUenYQNA5Is98hsADVOx37ki79r2KKnz48sV3LttAEaf9+/O2YVxGDE6WrpOmbNJ6RHQMjLC4xCpYkOgw8bZ48BIlNxAOnVioYoyROahYApgmIFGADbb5G+VSkgMx5SpxtnS2Fdmmffvzpy5aVi2SG4I3wUPdjrr1dyHL0lDVxNQ1Sk5EnO4GkjR/+cxGo4AEPWVraNrG2BJWQYZAWjw2HHI3SFd54eX9kd4uJIbt3QjBPDQAnPM+3dn5qwBSrYHLnbWyRdRZGi4gjMPDh+UrxGE2AAQ9VW9mjlSo0wBlDgblNSZKbGhjVG8sL4aW/7ph3l/Bff7eyM2Lgwjc2Kk6xQ7gqwBqGED0B02AER9VX9YSRmjTAGUOOX3M7BGWlAwTs3pdHop/rIF61b7YZ//p0YGdFOk8ZPkG8ugGwGoZQPQHTYARH3VIP/kmBYWjWhNzR7usnYqGAHIGxNr6uF/f837L1o2HEOG+nfe/1SFk+Qby32uVjQqOhNCVoaSEQA1O1wGGzYARH2lYATAKMP/AFDSKd8AnF1o3nf/fpv3/3kqfvhj/8/7n2rc+Dg16wAMMg3ANQD+wwaAqK8a5NcAZBlk+N8u3PiuU35B4xgTNwB+mffP9d/9/mcSnxCO7FEK1gEYZBpASQPQ3tb1QSdhA0DUVwoWARplBKC8sxFuyA97m3UEYIcf5v1jYsOw/PeBnfc/VeFE+X9fOwwyAhCjRaC/RcE0Sp1xtjg2CmNMQhKdgaYpeDKtqQZee1a+TlWZdImdzgasadH/rHIVCwCjY8Lwl9fVLIwMtNc31Sif988tiMWHf1dzZ4Wv6g/LT2dsd9Ya4t8oAIRpCtaXvPMGEC65qVBbi3QMJc9limiAgvafqBfpWZdg5NjbpWocaSjFV5/eoygREZE+4pJGYXC23POh221DVbH886FxWhGiXkT2M/895kRE1qhkvSMcxwaATCEyqj+6BqyIiMyLDQBRH2mWcMQmZOkdg4hISlzSCL0jHMcGgEyjf/okvSMQEflM08KQnDJB7xjHsQEg0+ifxgaAiMwrYUAewq2xesc4jg0AmUZcUjZiOA1ARCaVPvRivSOchA0AmYiG4fk36x2CiKjP4hKzkTLkQr1jnETJRkDvfvQJYmPNuRMY9e6VP7yIDU+t0TvGcUkp45Cceg4aD2/XOwoRkdeGFdwCo93JpKQBiI2NQ1y8MbY2JbUirVa9I5xmxNjbULz5N+h0yu/KRUTkb4OG/QSJAwr0jnEaTgGQ6URFpyJ30gPQNMltPYmI/CxxQAGyx/xS7xjdYgNAppQ4oAAjxv4KULFHOBGRH0THnWXoNytsAMi00jNnIn/yIoSF99M7ChHRSZJTz8G4C1chwmrc6XE2AGRq/dMmYtyFKxEdN0TvKERE0DQLhoy4AvnnLkZ4RIzecXrF44DJ9GLih2L89KdRs/d97K14BQ6bvkexElFoGjBoCrJyb0B03Fl6R/EKGwAKCppmQXrmxUgd8gPUVn+KhoNb0FhbDI9b/lx0IqKe9IsZhAGDJiPlrIsQmzhc7zh9wgaAgoolzIq0jBlIy5gBj9uBI43lcNoa4LA3wmlvhMfTqXdEIjIpDRrCI2Jh7ZcMa1QyYuKGIDouQ+9YPmMDQEHLEhaJpIFj9Y5BRGRIXARIREQUgtgAEBERhSA2AERERCGIDQAREVEIYgNAREQUgtgAEBERhSA2AERERCHI0PsAlJeWoHjblygrKUHVrkqkpacjJy8fuXn5OG/qhQgPD0z873fvxratn6OstAQVZaWIT0hEXn4Bco7miI6ODkiOQwer8cVnn6GstATlpSWwWq1dv4/8fEw5fyoSk5KUf89+Cn42l6NFQRIiIvMTHiFdw+1qU5AEHYZsANpaW/H4sqV4689vnPT5qsoK/PPjzQCAEaNG49GiFRiVk+O3HE6HA+ufWoOXnn8WHrf7pK9t3fIZACB90GA8vOQxTJpynt9yeDwevPqHl/DU6pVw2O0nfa1425cAgITERNz30MOYeekspd97YEqKdI2W5l0KkhARmZ/H45KuYW/fpyAJDhpuCuCr4u244iczT3vxP1VVZQWuvXI2Xnz2Gb/k+H73blw1+zK8sHHDaS/+Jzp0sBrzbroBSxcvghDynd2pmhobcct1c7GyaOlpL/4nOtLcjPsX3IX5t9/a6+P6amBKqnQNR0cdOh3NCtIQEZlbb68n3grKBqCttRX33nUHag8f9urxLpcLTz7+O3z2r38qzeFyuXD/b3+DPd/t9vqaN157Fa+/+rLSHACwdPEi7Ni+zevHb/7gfax98gll3z8lVb4BAIDGw8VK6hARmZnbJTsCINDeUqkiSrWhGoDHly31+sX/RI88eD/aWluV5Xh+wzpUlpf3+bo1j/8O1QcOKMvx3t/fxYfv/aPP173y0gvY+fVXSjL0HzAQmqZJ19ld8hw6nVwLQEShzenokLq+sWYzHB3VKqIYZwSgvLTkjMP+PTlcU4Nn1z+tJEdDfR02rlvr07U2mw2rVxQpyeHxeLB8yf/4fG3Ro75de6qIiAgMHjJEuk6noxlVX69TkIiIyJw8HjecDt+naJ32WtRV/01VnArDNADHFrP56qvi7UpylOzcCZfEEM2Obd4P1/dm357v0djQ4PP1FWWlsNlsSrJcNG26kjp1Bz7Ft9+sh8ftVFKPiMhMHDbf3/3b2vbgwK71EGqONBcA/maYBqCspETq+l0V5fB4PNI5KkrlcjQ01ONwTY10jlLJ34fH40FFWal0DgD4wfQfKakDANW7/4ptH92OlsYKZTWJiIxPoKO174uhhXCj7sDb2FvxBJyOOlVhPhdC1BjmNsDK8jKp6202Gw7s34eMoZlSdaoq5RdXVFaUITUtTa6G5O+jK0c5xp0zXrrO2MJCJCYlobmpSboWANjaqrHjkwWIiklDXGI24hJHIDJa/nZDIiKjcto7YOvwbq2a8Ljg6KiGvWMf7B0H4HE7VMd5CzDQRkAdHXILIwDA1iE/5G2TGKI5XqNdxc+iIke7dA0AsISFYepF0/D2m39SUu8Ye3sN7O01qKv+l9K6RETUq78A3AqYvDTn6mv0jkBERPI+FkJUAmwAyEsFZ4/F9B9erHcMIiKSc++x/2ADQF67ff4ChIWF6R2DiIh884YQYuux/2EDQF7LzBqGy6+4Uu8YRETUdy4AC0/8BBsA6pN5v74DScnJescgIqK+WS2EOOlkNjYA1CcDBqbg8TVrERERoXcUIiLyzgcA7jv1k2wAqM8Kx0/AAw8/oncMIiI6syoAPxNCnHYMoWEagITEBOka8Qnx0jXiEhTkSEwMmhw9uXzOlZh7/Y1+q09ERNKOAJglhOh2FzfDNAC5+QVS1yckJCJ90GDpHKNzcqVr5OblGyOH5O/0TBbcez9mX/kzv34PIiLyST2AS4/d89+doGkARuflqckh+eI9+KyzkKDgnbdsDqvVihEjR0nn6I0lLAyLHn0M9yx8CBbeHkhEZBQ7AUwQQvy7twcZpgE4Z8JEqReR8RMnKcmRk5eP6Ohon6+fMPlcJTkGDxmCtPR0n68fe854hIcHZqfna667AWs3Poe4ePkpGCIikvIWgClCiD1neqBhGoDMrGG44aZbfLp2WHY2rv/FzUpyxMXH4657Tlss6ZWk5GTcMf9uJTk0TcOiJct8utYaGYn7HnxYSQ5vTZ5yPl7+458x5YKpAf2+REQEAGgG8FsAs4UQbd5cYJgGAADm/fpODM8e0adrwsLCsGT547BGRirLMefquZg05bw+X/fAw48ovUf+3PPOx5XX/LzP1912513IGj5cWQ5vZQzNxNqNz2PDi5uQo2AdBBERnZETwBMAhgshVgohhLcXGqoBsFqtWLV2ndfrAeLjE1C06km/vNgsXbES5553vlePtUZGYsF9CzHj4pnKc8y/9z5cNvsKrx5rsVhw4y2/xLU33qQ8R19MnHwuXnnjTRStXI2Ro3N0zUJEFKTaAWwCMFoIMV8I0djXAhoAr7uFnny6tVjp/K/b7cbzG9bhmaefgsvl6vYxUy6YisVLizAwxb/nyL/x+v/iieXLejyuOK9gDB4tWuH3d9yffvwRHnlwIRrq67r9esbQTDy6fAXGjB3n1xy+qD5wAJs/eB+bP3gPXxVvh8fj0TsSEZEZ1QH4K7qO831fCGGXKWbIBuCYxoYGlJXsRHlpCap2VSItPR2jc/OQk5sf0CHu1pYWlJeWoKy0BJXl5YhPiEdOXj5y8/KRPWJkwFbA2+02lJeWory0BOVlpYiIiEBuXj5G5+ZhVE6uKXbna2psRGVFGepr61BfX4f6ujrU19WitbUV8H7kKuS53G5s3fKZdJ3Bw/17pwjpx2m3wemQen2Aw9YBe7tX08m92Q+gTLZIiOkEcBhADYBDRz/2ASgWQih7B2XoBoCIutfa0oKpEwul69z40AoFaciIavfvQcOhA1I1Dn5fhf27pF+7Nwgh5skWIfUMtQaAiIiIAoMNABERUQhiA0BERBSC2AAQERGFIDYAREREIYgNABERUQhiA0BERBSC2AAQERGFIDYAREREIYgNABERUQhiA0BERBSC2AAQERGFIDYAREREIYgNABERUQhiA0BERBSCwlUUqdpViZiYWBWliMgL7e1tekcgIpMLB9AEIEmmyM3XXqMmDREREQWEBcBBvUMQERFRYFkAHNI7BBEREQWWBUC53iGIiIgosCwA3tI7BBEREQWWBcAn6FoISERERCHCIoRwAfij3kGIiIgocI5tBLQEgF3PIERERBQ4FgAQQuwHsFbnLERERBQgJ24FvBTAXr2CEBERUeAcbwCEEE0ALgPQrl8cIiIiCoSTDgMSQnwD4DoAHn3iEBERUSCcdhqgEOJNALMAHAl8HCIiIgqEbo8DFkK8C2AygF2BjUNERESB0G0DAABCiAoAZwO4DxwNICIiCio9NgAAIISwCyGWAxgOoAjAdwFJRURERH4V7s2DhBANAO4HcL+maQXoWiOQDWAQgHQA+ThDM3EmcQkJsFikSijR3tYGV2enbJl68G4K8i8NQIbeIYjIvLxqAE4khNgJYOeJn9M0rRlAgkyQm267HYnJyTIllHh54zPYXVkpW+bXQojXVOQh6o6maYngGR5EJEH/t9xEREQUcGwAiIiIQhAbACIiohDEBoCIiCgEsQEgIiIKQWwAiIiIQhAbACIiohDEBoCIiCgEsQEgIiIKQWwAiIiIQhAbACIiohDEBoCIiCgEsQEgIiIKQWwAiIiIQhAbACIiohAUrqiOkC3gcDhgt9lUZJHi8XhUlJH+fVDw0jQtHECsZJkEFVmcdv3/5sg/Op0OuF2dUjU8breKKFZN0xIla7iFEK0qwtB/aELIv1ZpmrYXQIZ8nKBxiRDiH3qHIOPQNG0OgBkACgGMARCpbyIi0zkIoPjox3NCiH065zE9VQ3AFgCT5eMEjQIhRIneIUh/mqalAtgIYJbeWYiCSAuAO4UQL+odxMxUrQE4pKhOsDigdwDSn6Zp4wGUgC/+RKrFA3hB07RX9Q5iZqoagG8V1QkGdUKIZr1DkL40TYsCsAnAAL2zEAWxazRNm6d3CLNS1QD8VVGdYPCu3gHIEB4DMFrvEEQhYIWmacP0DmFGqhqAfwOoU1TL7N7WOwDpS9O0ZAB36p2DKETEArhb7xBmpKQBEEJ4APxJRS2TawXwnt4hSHeF4B4bRIE0Qe8AZqTySeoxAHaF9czod0KINr1DkO4K9Q5AFGIKNE2L0DuE2ShrAIQQ+wGsVlXPhA4CWKV3CDKEEXoHIAoxVnAvmj5TPUxZBGC/4ppmcbcQokPvEGQIFXoHIAoxdgB79Q5hNkobACHEEQCXAwi1/UWfFELwflQ6ZrveAYhCzNdCCJfeIcxG+UIlIUQxgJtU1zWwDwEs0DsEGcoOAHwyIgqcL/UOYEZ+WakshHgNwPUAHP6obyBvAbhcCKHkxAwKDkdHwor0zkEUIprBvzefKDkLoMfimjYZwJsA0vz2TfSzDMBC4c9fIJnW0RXJWwGM1TsLUZC7XgixSe8QZuTXe5WFEJ8DOBvAWgBy51IaxzYA04UQD/DFn3oihOgEcC14LgSRP63ni7/v/L5ZiRCiVghxO4AcAC+h6xQnsxEAvgBwFYCJQoiPdM5DJiCEKAVQgK4zAYhInToAs4UQt+odxMz8OgXQ7TfUNCuAaQAuAzASwCAA6QASAxqkZ050nW54CF3v3j4C8JYQ4qCuqcjUNE2bAWAGujYJKgTQX99ERKbiQdfttcVHP14RQtTqG8n8/h+bl/TA+AhYGgAAAABJRU5ErkJggg==;" vertex="1" parent="1">
          <mxGeometry x="70" y="262" width="80" height="80" as="geometry" />
        </mxCell>
        <mxCell id="P95oDodgm_lWHTKzFJ_f-2" value="" style="image;html=1;image=img/lib/clip_art/networking/Router_Icon_128x128.png;sketch=1;hachureGap=4;jiggle=2;curveFitting=1;fontFamily=Architects Daughter;fontSource=https%3A%2F%2Ffonts.googleapis.com%2Fcss%3Ffamily%3DArchitects%2BDaughter;imageBackground=none;imageBorder=none;" vertex="1" parent="1">
          <mxGeometry x="280" y="280" width="60" height="60" as="geometry" />
        </mxCell>
        <mxCell id="P95oDodgm_lWHTKzFJ_f-3" value="" style="image;html=1;image=img/lib/clip_art/networking/Router_Icon_128x128.png;sketch=1;hachureGap=4;jiggle=2;curveFitting=1;fontFamily=Architects Daughter;fontSource=https%3A%2F%2Ffonts.googleapis.com%2Fcss%3Ffamily%3DArchitects%2BDaughter;imageBackground=none;imageBorder=none;" vertex="1" parent="1">
          <mxGeometry x="490" y="280" width="60" height="60" as="geometry" />
        </mxCell>
        <mxCell id="P95oDodgm_lWHTKzFJ_f-4" value="" style="image;html=1;image=img/lib/clip_art/networking/Switch_128x128.png;sketch=1;hachureGap=4;jiggle=2;curveFitting=1;fontFamily=Architects Daughter;fontSource=https%3A%2F%2Ffonts.googleapis.com%2Fcss%3Ffamily%3DArchitects%2BDaughter;" vertex="1" parent="1">
          <mxGeometry x="690" y="270" width="80" height="80" as="geometry" />
        </mxCell>
        <mxCell id="P95oDodgm_lWHTKzFJ_f-5" value="" style="shape=image;verticalLabelPosition=bottom;labelBackgroundColor=default;verticalAlign=top;aspect=fixed;imageAspect=0;image=data:image/png,iVBORw0KGgoAAAANSUhEUgAAAgAAAAIACAYAAAD0eNT6AAAABHNCSVQICAgIfAhkiAAAAAlwSFlzAAAOxAAADsQBlSsOGwAAABl0RVh0U29mdHdhcmUAd3d3Lmlua3NjYXBlLm9yZ5vuPBoAACAASURBVHic7d15kCRnfebx582ss++evo/puTVIIyQBuhYEFuaSDDbGWGCMAUOE2TDsetcbG76wjQzCV7BejgAv67UJBOsDGeMwBmEbAYtAgA5z6NYgaWakubpnevru6q6qfPeP0YjRqGemuyor3zy+nwgITU9Xvj9Vt/J9KvP3vikBAAAAAAAAAAAAAAAAAAAAAAAAAAAAAAAAAAAAAAAAAAAAAAAAAAAAAAAAAAAAAAAAAAAAAAAAAAAAAAAAAAAAAAAAAAAAAAAAAAAAAAAAAAAAAAAAAAAAAAAAAAAAAAAAAAAAAAAAADLKnO8bfu6X3jniebmfMUbXyWqL5A1LtrTRgVZWK/6T+/Z2BNaed0zEm+/l7OYtO+fzhULQwMuXJXNY1u6TzK011b7w+U//r8mwawQAnNtZJ+PX//Kv7fJt/QPW6vWSvDAGm5+f0eEn98laG8bh4IAxRuMTO9TW3hnWIetW9m+Cmvndf/jrj+0P66AAgHPz1/ia+fm3vuu9nrV/K+m5WsdVgvUqFk9eOFhaWgjrkIjYyOgWdXT1hHlIz8hc4nn61Ysvu6py/w/uvCPMgwMA1vaMyf2n3/nOtlIl/ylJP9/KQQ8f3K+52elWDoEW6B8YUd/AcKuH+fRCt/crt370oyutHggAsuz0S/umVMn9lVo8+UvS0OiESuX2Vg+DEHV29UYx+UvSWzpmg7+IYiAAyLKnbwHc8LZ3/4Fk3h3FoMYYdXZ2a252RkFQj2JINKHc1qGx8e0yJrL+zUsvvuyqRW4HAEDrGEm64Zd+dbc87z5JuSgHr1SWdGDfXtmgkWZyRKFQLGli6y75fqS/GpK0GuSCCz/3V3/+WNQDA0AWnLwF4Js/VsSTvySVSm0aGZ2Ielisk+/7Gt+8zcXkL0kFr+bd6GJgAMgC83O/+O4tfk6PK8Ru/42amjyk6WNHXQ2PNXjGaHzrLpXd9mrU5Xsjt3zyo1MuiwCANPJyeb1WDid/SRoYHFVnV6/LEnCGodEJ15O/JPk2sK9xXQQApJFnrV7lughJGh6dULFUdl0GdDKQdXVvcl2GJMmTvd51DQCQRp6k7a6LkCTP8zS+ebv8nJP7zXhKd0+fNvUPuS7jaTbQVtc1AEAaeZJGXBdxSi5f0Nj4NhmPxwW40NbeoaGRcddlPJPRqOsSACCNPEndros4XbmtQ0MjrAyIWqFQemqtfyiPfQgTzSEA0AKxO9tLUnf3JvVuGnRdRmb4uZw2b9khz1/r0RAAgDSKZQCQpMHhMbV3drkuI/WM8TS+eYdy+YLrUgAAEYptAJCk0bGtKjz1BEGEzxijkfEtKpXbXJcCAIhYrAOA5/ka37xDPpemW2JgcEydnaE+2hcAkBCxDgCSlC8UNDK+VY73Kkqdnt5+9fYNuC4DAOBI7AOAJLW3d2loeMx1GanR0dEVv+V+AIBIJSIASFLPpgH19Pa7LiPxSqU2rqgAAJITACRpaGSzOru4Z92oQqGosYnt8jx6KgAg6xIVACRpZGyrunv6XJeROOW2Nm3etku5XN51KQCAGEjcxvvGmJMPDiqXNXX0kGwQuC4p9no29WtgaFye4bI/AOCkxAWAU3p7B9Te3qWpowe1MD/rupxYKpXLGhwcV7m9w3UpAICYSWwAkJ66p715u1Yqyzpx4pgW5mZUr9dcl+WUZ4zaO7rV1dunjg52UgQArC3RAeCUYqms4ZHN0shmLS8vqrK8rOrqsmq1uoKgLlnXFbaO53vyfF/5fFGlUlltbR0yXuJaOwAAEUtFADhdudyucrnddRkAAMQaHxUBAMig1F0BQLpY45ee854fftvF2H6+53vyi3MuxgaQPdbTsme1GFhz3PfNY9YGD933nqGjrRqPAIBYszJeUF242sXYXr77alZOAoiKsSdb1oyxCoKTzWt7bjo6KZmvWWu/ljf+P//gd/sPhjUeAQAAgPgalOwbjdEba6rX99x09DYZ+6lS/9At9/xHU23mwPQAAACQDL6kV8qa/1uZmty756aj79r5kb3FRg9GAAAAIHm2SPpYca7r/os+MHl9IwcgAAAAkFw7jLVf2nPT0b/eeePxDe3+RgAAACD53lTM1f79wg9MPX+9LyAAAACQDjs8G9yx56ajr1/PNxMAAABIj6Kkv91z0+TbzveNBAAAANIlJ9m/uugDk2841zcRAAAASB/PWHvzng8cfulZvyHKagAAQGSKst7f7/njQxNr/SUBAACA9Nqkqv+Za2+0z9r5lwAAAECaGb14Mj/5X878MgEAAICUM1bvveTG4+Onf40AAABA+nXW/Nofnf4FAgAAABlgjN504fsnd536MwEAAIBs8D2j3zj1BwIAAACZYd/8gj+e7pYIAAAAZEm5Uq+9TiIAAACQLda+SSIAAACQNS/ZeuPjJQIAAADZUurwS1cTAAAAyBhrfAIAAADZY3c/6+EAUTDGqNzerkKhKM/3JeuiCqxXPairulLR8tKSrOWHBQCJZxV9ACiVyurp75fvO8keaFRnl7rqNU1PTWl1peK6GgBAM4xGI70FUCyV1Tc0xOSfUL6fU//QsArFoutSAADN6YwwABj19vVLMtENidAZY9S7qd91GQCA5kQXAIrlkvwcn/zTIFcocBUAAJItH1kAKBSYMNIkz88TABItsgBgDJf+08TzWEEKAEnGWRwAgAwiAAAAkEEEAAAAMogAAABABhEAAADIIAIAAAAZRAAAACCDCAAAAGQQAQAAgAwiAAAAkEEEAAAAMogAAABABhEAAADIIAIAAAAZFGEAsNENBQAAzimyAFCv16MaChGo12uuSwAANCGyAFBZXo5qKLSYtdLKcsV1GQCAJkR3BaBW09LCQlTDoYUWF+a4AgAACRdpE+Ds9HGtrqxEOSRCtlJZ1tyJaddlAACaFGkACGygY0cPa35mRkFAT0CS1Ot1zc2c0PHJI7KWhk4ASLpc1ANaazU3e0JzszPK5XMyhpWIcWeDumo1LvkDQJpEHgB+zKpWrbobHgCADOPjNwAAGUQAAAAggwgAAABkEAEAAIAMIgAAAJBBBAAAADKIAAAAQAYRAAAAyCACAAAAGUQAAAAggwgAAABkEAEAAIAMIgAAAJBBBAAAADKIAAAAQAYRAAAAyCACAAAAGUQAAAAggwgAAABkEAEAAIAMIgAAAJBBBAAAADKIAAAAQAYRAAAAyCACAAAAGUQAAAAggwgAAABkUM7NsEalclmFQlGe70vGTRVYByvVg5qqlRVVKpWTXwAAJF7kAaBQKKp3YFC5nKPsgcZ0S9Xqqk4cm1J1ddV1NQCAJkV6C6BQKKp/eITJP6Hy+YL6h0eUzxdclwIAaFKEAcCot29AxnC9P8k846m3v1/ctwGAZIssABRLReUK+aiGQwvlC0XlC1wFAIAkiywAFArFqIZCBIpFfp4AkGSRBQDjseIwTfh5AkCycRYHACCDCAAAAGQQAQAAgAwiAAAAkEEEAAAAMogAAABABhEAAADIIAIAAAAZRAAAACCDCAAAAGQQAQAAgAwiAAAAkEEEAAAAMogAAABABhEA0BhrXVcAAGhCZAGgXq9HNRQiUA8C1yUAAJoQWQBYqVSiGgoRWKksuS4BANCEyAJArbqq5SUmjTRYWlhQvcYVHQBIskh7AGaOT6m2Wo1ySISsurKqmRPHXZcBAGhSpAEgCAJNHj2kxfk5WZrIEsUGgebnZjV19JAs9/8BIPFyUQ9og0Az08c1e2Ja+UJBxpioS8AGWWtVXV0ltAFAikQeAE6x1mp1ZcXV8AAAZBr7AAAAkEEEAAAAMogAAABABhEAAADIIAIAAAAZRAAAACCDCAAAAGQQAQAAgAwiAAAAkEEEAAAAMogAAABABhEAAADIIAIAAAAZRAAAACCDCAAAAGQQAQAAgAwiAAAAkEEEAAAAMogAAABABhEAAADIIAIAAAAZRAAAACCDCAAAAGQQAQAAgAwiAAAAkEEEAAAAMogAAABABhEAAADIIAIAAAAZRAAAACCDCAAAAGQQAQAAgAwiAAAAkEEEAAAAMogAAABABhEAAADIIAIAAAAZRAAAACCDCAAAAGQQAQAAgAwiAAAAkEEEAAAAMogAAABABhEAAADIIAIAAAAZRAAAACCDCAAAAGQQAQAAgAwiAAAAkEEEAAAAMogAAABABhEAAADIIAIAAAAZRAAAACCDCAAAAGQQAQAAgAwiAAAAkEEEAAAAMogAAABABhEAAADIIAIAAAAZRAAAACCDCAAAAGQQAQAAgAwiAAAAkEEEAAAAMogAAABABhEAAADIIAIAAAAZRAAAACCDCAAAAGQQAQAAgAwiAAAAkEEEAAAAMogAAABABhEAAADIIAIAAAAZRAAAACCDCAAAAGQQAQAAgAwiAAAAkEEEAAAAMsibOXHMdQ3AWc2emHRdAgCkkjd55EktLy24rgN4lqXFeR078qTrMgAglTxrrQ49uU+1WtV1LcDTqtVVHTq4T1bWdSkAkEqeJNVqVR168jHZgJMt3Aus1aEnHle9VnNdCgCk1tNNgMtLSzp65IDLWgBJ0tHDT6hSWXJdBgCkWu70P8zOTKtUbldPb7+rehIhr7q2Fo5pPD+jwdy8SqaqolfTSpDTclDQ4VqXDtZ6tb+6SXXLQouNmD4+pbmZ467LAIDUy535hckjT6pYLKnc1uGintgqm6qubntML2x7VM8pHlHRnP/y9HJQ0H0rI/rW0k7dtbxVVetHUGlyLS3Oa+roQddlAEAmPCsAnGoK3LJ9t3K5vIuaYqXbX9ZrOu7VKzvvV9lsrFGy7K3qivJ+XVHer/l6SV9cuFi3Llys5aDQomqT61TTn2j6A4BIPCsASD9uCtw8cYGMZ6KuKRaMrK7rvF9v7L5bbWa16eN1+hX9Qvfduq7jAX165mrdvrQzhCrTgaY/AIjeWW9QZ7kpsMtb1u8MfFlv77kjlMn/dD3+kv5z31f13/v/Ve3eSqjHTiqa/gAgeufsUJudmVbWdgrcnD+hPxn6B11aeqKl41xZ3qf3D/6T+vzFlo4TdzT9AYAb521Rz9JOgdsKx/QHg19QXy6aSXk8f0I3Df2jBnPzkYwXNzT9AYA75w0AWdkpcCg3p9/p/7I6vEqk4/b5i3rPwJfU5S1HOq5rNP0BgFvrWqSe9p0C86au/9b3FXX7bu5Dj+Rm9ev9t8nLyGRI0x8AuLfuXWrS3BT4S93f1baC216HPcVDek3nD53WEBWa/gDAvQ1tU5fGpsDthWN6Vef9rsuQJN3QfY8G/HT3W9D0BwDxsOF9atPWFPiWnu/E5tJ70dT0hp67XJfRMjT9AUB8bDgApKkpcHfxqPYUD7ku4xmuKT+qIT99qwJo+gOAeGnoSTVpaQp8ZccDrkt4Ft8E+snOh1yXESqa/gAgfhp+VF3SmwJLXlVXlve5LmNNL2l7RGnagHny0AGa/gAgZpp6Vm2SmwL3FA+puMGH+0Slz1/URH7adRmhmD4+pdnZdPy7AECaNP2w+qQ2BV5UPOK6hHPaU0p+sxxNfwAQX00HgKQ2BW7Jx3sp2paEXwGg6Q8A4q3pACAlsylwJD/juoRzGsnNui6hYTT9AUD8hRIApOQ1BXbF/FG8SX42AE1/ABB/oQUAKTlNgUZWhZg2AJ5S9uJd39nQ9AcAyRBqAJCS0RRoZRTY0P/VQ1UP/0fTcjT9AUByhD7LJKUpcEU51yWc03KQd13ChtD0BwDJ0pKPmUloCpyutbsu4Zym6x2uS1g3mv4AIHladp057k2Bh6vdrks4p0Mxr+90NP0BQPK09Ebz7My0ZmPaFPij6oDrEs7p0ZjXd8qJ45M0/QFAArW80+xoTJsC76uMui7hnO6rjLku4byWFuc1eTReT1MEAKxPyzvhTjUFbtm+W7lcfBrbfrQ6qOP1dvX5i65LeZa9K4Oarre5LuOcomz663/iiy0fYy2FrlEV490rCgANi+T0dqopcPPEBTJePJ5zZ2V0++Iu/WzX912X8izfWN7luoRzirrprzy3N5JxzpTPVdVp4hcQASAMkS02j2NT4L8s7lHN+q7LeIaFoKRvLFzguoxzoukPAJIv0t1mZmemNTMTn4fwHK+16+tL8Zps/3n+Yi3b+NwqOdOJaZr+ACANIt9uburIk6rVVqMe9qz+ZuYKzQcl12VIkqZqHfri/CWuyziranVVxyYPuy4DABCCyANAEASaPBKf7WLng5I+PXO16zJkZfSJEy/Rio1v19nRI08oCALXZQAAQuBkw/mF+VnV6/HZNe7rixfo/y25bbz7/Nzz9MPKuNMazqVWq2ppYd51GQCAkDgJANZaLSzMuRj6rD4x/RJnE/BdS1v12dkXOBl7vRbmZ2VtfLd2BgBsjLNHzi0vxmtzoJr19WfHXq6HV4YiHfee5Ql96PjLFCgeyyPPZilmPy8AQHOcBYCV5fgtI1uyBd009WrdtbwlkvG+snihPnj8laoqXksR17LCsj8ASBVnAaCyUpG18WsoW7E5ffDYq/TpmatatkdAJcjrY9PX6n9Pv1h16+xHsG5Bva7V1RXXZQAAQuSw5dxqpVJRqRy/LW+tpC/MX6p7Klv1jp5v6ZLSk6Ed9zvL23XzzH/Q8Zg/jvh0bPoDAOnjdM1ZpbIUywBwyqFqt26a+ildWDys13b9QJeVnpDXwN73NevrrsoWfX72edpX7WtBpa1VqSy7LgEAEDK3AWB5Sep1WcH6PLgyogenRtTrL+nq8mO6pPSknlM8qnbv7JfFZ+ttenBlSD+sjOs7y9u0EJPNhhpRiWG/BgCgOU4DQBwbAc/lRL1Nty5crFsXLpYkdfvLGvLnVPaqavNWtRAUtBQUdbTWmegJ/0w0AAJA+ri9AvBUI6Ax8W+EW8tsvazZetl1GS1FAyAApJPjmfdkIyDiiwZAAEgn5x+9mWDijQZAAEgn9wEgYX0AWcPPBwDSyXkASFojYNbQAAgA6eQ8AMR1R0DQAAgAaeY8ANAIGF/0ZwBAesUgADDRxBUNgACQXvEIAPQBxBI/FwBIr1gEABoB44kGQABIr1gEABoB44cGQABIN6dbAf9YfB8NnFX0ZSAsnic9Z9ucLr/ouC7YMqehvoraSnVJ0tJyTkeOF/XI/m7ddf8mPbK/SwGfBYBIxCQAxP/RwFlDAyCaVSzU9ZqXHNJPXXNQne21Nb+nu3NV3Z2r2r11Xj/9E09qdiGvL90+qi/dPqaVaiwuUAKpFZ8AkJBHA2cFDYBoxk9cPqk3/9Q+9XSubuh13R1Vven6/XrVCw/rM1/cpm9+b6BFFQKITQCgETBeaABEIzxPetN1+/Talz7Z1HE2da/q137xYV20Y1Z/+fkdqtdNSBUCOCU2ASDpjwZOExoA0YicH+g33/6gLt19IrRjvvyqI+rtWtUHP3UhIQAIWYxmW3YEjAsaANGId7zusVAn/1NecOG0fuXnHg39uEDWxSgAMPHEBQ2A2Kjrrzmkl191pGXH/8krj7T0+EAWxSsA0AcQC/wcsBHdHVX9wnX7Wz7Om1+9T51t1ZaPA2RFrAIAjYDxQAMgNuKGVx5QuVhv+Tjt5Zpe97LmmgsB/FhsmgAlGgHjgAZAbERXe1UvuzK6S/OvetFhfe62zVpcitWpCxtg81J9q1FtzChoN5Jn5S1I/mGr3D7JVGyo4wVdUm2bp/qQZEtGZlUyc1a5J07+L2xBt1Ftm1QfNE+P581Z5Q5Y+U+GP14zYvZfETsCukYfBjbi8j3H5fvRndTyfqDn7z6h29kfIJFq24xWLvdky6d/1SjolWqbjVafJxW+Fyj/UAi/Uzlp5QpP1Z1GOnMByaBRbaeRd8Kq9E0r70QI4/lS5UpPtV3PXq1SHzSq7jTypqXSt4JwxgtB7D5qMwG5RQMgNuKKPdORj3n5nuORj4nmrV7sqXLNmZP/M9m8tHKlp5WrmlzymTdafqWv6q41Jv/TBL1Gy9d7qo80N5zNS0vX+WtO/s8Yb5O0fJ2n+lA8lrTGLwDQB+AU7z824sLts5GPedGO6MdEc+qbjVafd+7J+HTV3Z6quxufniovMqr3r+97bU6q/IQv297wcKpc4ynoW+d4ealyrdfUeGGJXQCgEdAtGgCxXt2dq08/1CfScTuqai+v/WwBxJB38lL8eif/U1YvM7KFjQ9XHzaqTWxsMFuQVi5rbDqsjxrVN29wvKK0eqn76dd9BWfg0cDu0ACIjegoRz/5/3hsAkBS1EeNgo6Nv84WT/YMbFR1d2OX1+vbjGxx46+rXtDYeLXtRmog4IQpdgGAHQHdof8CG+F77oK6n4tHExXOrzbc+P3u+sjGX9vIayTJeieb9aIcrzbgthcghgGAicgVGgCxEcsr7hYRLVditoAJZ9XMvW7btsFL6zk1dNvg6de3b3BCzhvZfDPjNf7aMMQzANAH4ATvOzZieq7g5AE9q1VPM/MEgMRo5kLRBl9rAknNXBwKNvhi29yVKOP4QlYsAwCNgG7QAIiNqNeNDhyO/iPMvkPtsjYey6hwfmax8dd6CxucIQPJa+IOsrewwRfUJNPEhVMz3/hrwxDLAEAjYPRoAEQj7n5gU+Rj3nX/OtdbIRZyBxs/l/sHN/4RudHd9kxV8o5u/LW5BmqUJFWt/Em3lwBiGQBoBIwefRdohIvJ+O77ow8daJw/KfnHNj7RmUU1tFVv/sHGAkfuYSvTwMKW/IONTeL5h9Xc7ZEQxDQAMCFFjQZANGLfoXbtPdAZ2XgPPNqlg5NsFZ4oVircGWx4ci19N5AaWO3pzUj5BzY2KXtzVsX7GpuNvRN2wyHAm5MK97q/yh3fAEAfQKR4v9Goz3xxayTjWCv99a3bIhkL4fKPScXb1xkCrFS8s7kH5xTvCZR7fH2vN4tS6auBtNrwcCfH27/O8Rak0tcCmRg82Tq2AYBGwGjRAIhGPfhYt+68r/W3Au74wYAe2R/d1QaEK3fAqvzluryps0+U3oxU/rdA+Yea/HRspdI3AxXvDGTO1tpkpdzjVm1frMuba244BVLpG4GKdwUy5wgS+ceeGm82HvtYxHYtDY8Gjg4NgGjWn9+yS5uHlzTS35pbSQcn2/QXn9vZkmMjOt5xqe3Lger95sc7BHqSt2jlH7byj6i5ZXyns1L+Iav8o4Fqo1IwZBSUnmr2m7Xyn7DywuzCtyf7AfI/ClQbk4LBk+Op+tRtiSeszEZXNbRYbAMAjwaODv0WaNbiUk5/+skLddN/+mHo+/QvLOf1J5+8SEsVP9TjwhEr+VNW/jmuBISqapXbL2mdl+hDGW+fpH3xmuzXEuuP10xM0aABEGE4ONmm3//4JZqcLoV2zKPHy3rvx56rI8fCOyaAk+IdAOgDiATvM8LyxJE2/fZHLtN9P+pp+ljff7hXv/3hS/TEUa4CAq0Q41sANAJGhQZAhGl+Maf3feJiPXfXjN72M49rYnhjW8EdnGzTZ/91Qt/+wTof6A6gIbEOADQCth4NgGiVe/f26Dc/dJmet3taV+yZ1gv2TKurfe21T7PzBd394Cbdfd8mfe/hTQrcL5EGUi/WAYBGwNajzwKtVK8b3f1An+5+oE/e56ShTcsa7l9WuViXldFyxdeR42UdPV5kf38gYjEPACcnKAJA69AAiKgEgXT4WFmHj5VdlwJAMW8ClGhQazXeXwDIptgHABoBW4sGQADIHisT/wDAo4FbhwZAAMgma/I29gGARwO3Dg2AAJBNgZcPEhAAmKhahQZAAMimul+qJiMA0AfQEryvAJBN9VzHdCICAI2ArUEDIABkU90r709EAKARMHw0AAJAdtW80t2JCAA0AoaPvgoAyChjZP32/5OQAMCEFTYaAAEgm1bzvSu3ffgXf5icAEAfQKh4PwEgmyqF4TulBOwEeAqNgOGiARAAsqmW6/pDKUEBgEbA8NAACADZtFIcnr/tI2/5spSgAEAjYHjopwCAbFoqj33k1D8nKAAwcYWFBkAAyJ7VwqaV2qZtN576c7ICAH0AoeB9BIDsWWjb+YGv3/jS2qk/JyoA0AgYDhoAASBbFstbDt72kbe9//SvJSoA0AjYPBoAASBb6l7RLpeGX3/m1xMVAGgEbB59FACQIcZovvviP/3ah9/63TP/KmEBgAmsWTQAAkB2zLVfcNe/ffgdv7XW3yUvANAH0BTePwDIhqW2rQdWBp/7wrP9feICAI2AzaEBEADSb7k0fmzR27Ln9K7/MyUuANAI2DgaAAEg/ZbathxaaBve9fWPv2HhXN+XuABAI2Dj6J8AgBQzRvMdz/nO4vAVW77+obfPnO/bc1HUFLZKZUmlcpvrMhKHBkAASKe6V7JzPRe/7ysfevuN631NMgPA8pLU67qK5KEBEADSZ7Ft2/6l0sjPfv1Db/7+Rl6XyABAI2BjaAAEgPSoFAYXl8pb3nvbR3/5fzTy+kQGgFONgMYksIXBERoAASD5rIwqpZHp5dLIB2/7yDv+qJljJTIAnGoEpA9g/WgABICEMp4qhYH51UL/Hau5jveutatfIxIaAGgE3KgkNwBav+hk3MDkbd1zM3ZDrJVqS8Z1GamUb7MSby1ay/rFemBydWsKqzW//UjdLz1Wz5e/s9KW+8Ttf/iWw2GPl9wAQCPghiS5AfCr//RpzrzrcPnlL7x4cXXlXtd1pFFbvnvXPfd89VHXdQBhSuxNdBoBN4YGQADA6RIbANgRcP1oAAQAnCmxAYAdAdePBkAAwJkSHACY2NYryQ2AAIDWSHYAoA9gXXifAABnSnQAoBFwfWgABACcKdEBgEbA86MBEACwlkQHABoBz48+CQDAWhIeAJjgzocGQADAWpIfAOgDOCfeHwDAWhIfAGgEPDcaAAEAa0l8AKAR8OxoAAQAnE3iAwCNgGdHfwQA4GxSEACY6M6GBkAAwNmkIwDQB7Am3hcAwNmkIgCs8El3TSsrvC8AgLXlXBcQhmpt1XUJsVSr8r5kHTGd4gAAC85JREFUibVtc6VyKv6Tjh0vCBZd1wCELRVniyCouy4hdqy1CgJWR2RJLmdXbL7guoxU8us+aRqpk4pbADk/FTkmVMYY+b7vugwAQEylIgDkCyXXJcQS7wsA4GxSEQA6OrtclxBLHR28LwCAtSU+AHjGqKt7k+syYqm7d5Mk47oMAEAMJT4A9A2MyKcHYE25XEF9/UOuywAAxFCiA0C5rUObmODOqW9gSKVy2XUZAICYSWwAyOcLGt281XUZsWeMp7HxHcqzPAwAcJpEBgDfz2l8y07l/LzrUhIhl89rfGKHPJYFAgCekrgAYIyn0fFtKhSKrktJlEKxpPHx7TIeTYEAgAQGgOHRCbW1d7guI5HK7R0aHtniugwAQAwkKgAMDI2qq7vXdRmJ1tXdq/6BEddlAAAcS0wA6Ont16Y+Ov7D0DcwrJ7eftdlAAAcSkQAaO/s0tDIuOsyUmVweFxtHZ2uywAAOBL7AFAqlzU6tlXsaBcuY4zGxrerWGKPAADIolgHgHy+oLGJHfI8lq+1gud5Gt/MHgEAkEWxDQC+n9P4xA7W+rcYewQAQDbFMgCcXOu/VYUij7ONwtN7BJhY/joAAFoglmf84dHNamunQS1K5fYODY9udl0GACAisQsAA0NjPN7Xka7uTeobGHZdBgAgArEKAD09fdrUN+i6jEzrHxhRNwEMAFIvNgGgo6NLQ1yCjoWh0Qn2CACAlItFACiVyxoZ3ybW+sfDqT0CSkX2CACAtHIeAPL5gsY275DnOS8Fp/E8T2MTO5TPswwTANLI6azr+b7GJnYol2OSiaOTewTsZI8AAEghZwHAGE9j49tUZK1/rBWKJY2xRwAApI6zszpr/ZOjrb2DhzEBQMo4CQD9g6Os9U+Y7p4+9fWzRwAApEXkAaCnp099/UNRD4sQ9A+yRwAApEWkAYC1/sk3NDqhdm7dAEDiRRYAWOufDsYYjW7exh4BAJBwkQQA1vqni+f57BEAAAnX8hnZ832Nbd7OWv+UyeXzGmOPAABIrJYGgKfX+pe4XJxGRfYIAIDEaumZm7X+6cceAQCQTC0LAAOs9c+M7p4+9Q2wRwAAJElLAkB3b582sdY/U/oHRtTdQ+ADgKTIhX3A9o4uDY+w1j+LhkYmVKtWtbg477qUTKrVbEe1vuy6jFRqz9PIhPQJNQCUSm0aZa1/Zp3aI+DAvr1aqTARRc2YSrm6uuK6jFRatSWeWobUCe0WQC5X0NjENtb6Z5zn+RpnjwAAiL1QZuuTJ/3tyuUKYRwOCZfLsUcAAMRd0wHAGKOxzaz1xzMViyWNjm0Vt4MAIJ6aDgDDoxOs9cea2ju6NMzDnwAglpoKAKz1x/mwRwAAxFPDqwC6e9yu9fc8X6VySX6IfQerKxWtrlRkrQ3tmGdjPKNiqax8vhjaMWu1qlaWlxQEQWjHDEP/wIiq1VXNzUy7LgUA8JSGAoDLS7vdff3asnOXevsH5HnhN5lVV1c1deSQ9u99WJWlpdCP39bRqS27LlD/0IhyLeiUr9frmp46qgN7H9HczInQj9+o4ZEJ1as1LS7OuS4FAKAGAoCrtf7GeLrgkks1OrG1pePkCwWNTmzV8PiEHrn3+zp8YH9oxx7ftkM7L3qujNe69873fQ0Mj6p/aERPPPYjPfbg/ZFc0Tifk3sEbGWPAACIiQ31AJxc3hX9Wn9jjC56/uUtn/xP53mennPp80Mbc2LHLu26+JKWTv6nM8ZoYscuXXDJZZGMtx6n9ghguSgAuLfumdzlyXt0YqsGR8ciH1eSLrjkUrV1NLfKoat3k3ZcdHFIFW2My/duLblcXuMT29kjAAAcW1cAOHX51sVaf2M8bd39nMjHPX38bbsvbOoY2xzWL0nbL9wjY+KzHr9YKrNHAAA4tq4AMDwyofb2rlbXsqbe/gEVim634e4fHlEu11jDXr5QVG//YMgVbUy5rV2d3T1OazgTewQAgFvnbQLsHxxRl8PHvHZ2dzsb+xTP89TW2am5ExtfxtbZ3ROLT9+dPb2xWhUgnVxKWl1d0fFjR12XEgVzxYteepHk7zGetsiqXVK4ydaquy1Pf0UreJ759SuveflCyIddNlaL1pj9xgT3f/f22x6U5L5jF5lxzgDQ3dOnvn63m7jkCvE4oRUarCM+9Ye330CY+gdHVa1VU7tHwOUvfsWLPGvfIelnJPVLat0p3ki+H/oTvnHSu1txUGskycpaoyuvefmklf7RmuAv7779q3e2YjzgdGc9W8TlEm2tWnVdgqST+wM0otbg68LWaP1RSOMeAVdf88qrAgUflLXXuK4FiTFopHca673zymte9vl63f+de779rw+5LgrptWYPQJyatBbm3U8K1gZaXJhv6LWL83OxWIc/Pz/ruoSzctlkGrYbbrjBv/KaV/xJoOAOSUz+aJB5ne8H91714le8T3E4ESOVnhUA4rZM68TUpPOrANNTUw3XsFJZdn7vfaVS0dz0cac1nE8a9gi49tprO/YfOvE5yf6GQnrUNjItZ639vSuvefkXrrrqejdd2Ei1Z5yk4ngSDup1HfjRI87Gt9Zq38MPNnWMZl/frH17H4rFVYjzcbXRVBiuvfbajqVq7hsyeq3rWpA6r7b56m2EAITt6TNtnC/DHnhsr04cm3Iy9v5HHm76E/z01KSeeOxHIVW0MceOHNahfY87GbsRrraabs6N3lLNv1lGz3NdCVLrcpuvfla6MXnpGLH19C/TkMO1/udjA6t77/qOjk8eiW5Ma/X4Iw9q395wenAefeA+HXh0byjHWq/JQwf1wL/fFemYYWjv6NLwiPsG1PW68ppv/p5kXue6DqTeq6588bd+y3URSA9zyeUvtP0DI4l5Zvvw2GZN7LpA7Z2tCSs2sDpxbEqPP/JgQ+v+z6enr19bd1+onk19LdsfYH72hPbvfURThw+15PhRmZo8pBPTU/rBnd+M7eWAq178sousNd+XFP6jHYFnq/h1/7nf/va/uLmkiFTJdff0JWbyl6QjB5/QkYNPqNTWpnJbu/IhrbO31mp1ZUVL83OqtrDpcOb4MX3/jtuVLxTU3tmpfKGksHLA6uqqlhcXtLKcjqftDQyOql6r11zXcS7W6iYx+SM6pbpf/wNJb3ZdCJLP3PDWd9lk3W9FttilW27+eLvrKtZy1UtescsG9iHR8Y9o1evS9nu++ZUDrgtBsnlM/oi3GP9+BvatYvJH9PyctVwBQNM4eQENslavdl0DMsoYfvfQNAIA0IAXvehFnTK61HUdyCYrXbnz+uvj+YAPJAYBAGhAVW27xX8/cCffO1fZ6boIJBsnMKABnjTqugZkmyeP30E0hQAANMB6QZvrGpBtgUyn6xqQbAQAoAFBoHg8LQuZZYzhdxBNIQAAAJBBnqQZ10UA5xD+fswAAHkySvaG8Ug7fj8BoAU8We1zXQRwNlb8fgJAK3iSvdV1EcDZeNKXXNcAAGnkSfl/kmRdFwKsoW59jwAAAC3g3XLzhw9I5vOuCwHOZKXP3PLJj065rgMA0sg7+X/2tyVVHdcCnK5ilPt910UAQFp5kvR3N3/sESv7AdfFAKd5z8mrUwCAVnh6I6C/v/nj75Ps37ksBnjKp2+5+WN/5roIAEiz03cCtFouvt0Y3eKsGmSelT610O39ius6ACDtcqf/4ZZb/ueypDe+4a3vutfK/K6kgpuykEEVSe/5+6R88jfmqOsSkHE2OOK6BCTbWs8CsJ+9+ePv94x30VO3BIKoi0Km1I01N0u53Um67B8sl++Q9LjrOpBZj7Tl63e5LgLJZs73DTf88ruGTV0/bY13naQtkkYlW2p9aUipZVkdNJ72BTK3Gs/8c1KX+l31klfsstZ+SFZX6IyraUCL1CT7HSvzX+/65lcec10MAAAAAAAAAAAAAAAAAAAAAAAAAAAAAAAAAAAAAAAAAAAAAAAAAAAAAAAAAAAAAAAAAAAAAAAAAAAAAAAAAAAAAAAAAAAAAAAAAAAAAAAAAAAAAAAAAAAAAAAAAAAAAAAAAAAAAAAAAABIpP8Pgeo9u+f6/ZwAAAAASUVORK5CYII=;" vertex="1" parent="1">
          <mxGeometry x="920" y="270" width="72" height="72" as="geometry" />
        </mxCell>
        <mxCell id="P95oDodgm_lWHTKzFJ_f-6" value="" style="endArrow=none;html=1;rounded=0;hachureGap=4;fontFamily=Architects Daughter;fontSource=https%3A%2F%2Ffonts.googleapis.com%2Fcss%3Ffamily%3DArchitects%2BDaughter;fillColor=#76608a;strokeColor=#432D57;strokeWidth=6;endFill=0;entryX=0;entryY=0.5;entryDx=0;entryDy=0;" edge="1" parent="1" target="P95oDodgm_lWHTKzFJ_f-2">
          <mxGeometry width="50" height="50" relative="1" as="geometry">
            <mxPoint x="146" y="310" as="sourcePoint" />
            <mxPoint x="236" y="310" as="targetPoint" />
          </mxGeometry>
        </mxCell>
        <mxCell id="P95oDodgm_lWHTKzFJ_f-7" value="" style="endArrow=none;html=1;rounded=0;hachureGap=4;fontFamily=Architects Daughter;fontSource=https%3A%2F%2Ffonts.googleapis.com%2Fcss%3Ffamily%3DArchitects%2BDaughter;fillColor=#76608a;strokeColor=#432D57;strokeWidth=6;endFill=0;entryX=0;entryY=0.5;entryDx=0;entryDy=0;" edge="1" parent="1" target="P95oDodgm_lWHTKzFJ_f-3">
          <mxGeometry width="50" height="50" relative="1" as="geometry">
            <mxPoint x="340" y="309.5" as="sourcePoint" />
            <mxPoint x="474" y="309.5" as="targetPoint" />
          </mxGeometry>
        </mxCell>
        <mxCell id="P95oDodgm_lWHTKzFJ_f-8" value="" style="endArrow=none;html=1;rounded=0;hachureGap=4;fontFamily=Architects Daughter;fontSource=https%3A%2F%2Ffonts.googleapis.com%2Fcss%3Ffamily%3DArchitects%2BDaughter;fillColor=#76608a;strokeColor=#432D57;strokeWidth=6;endFill=0;entryX=0;entryY=0.5;entryDx=0;entryDy=0;" edge="1" parent="1">
          <mxGeometry width="50" height="50" relative="1" as="geometry">
            <mxPoint x="550" y="309.5" as="sourcePoint" />
            <mxPoint x="700" y="310" as="targetPoint" />
          </mxGeometry>
        </mxCell>
        <mxCell id="P95oDodgm_lWHTKzFJ_f-9" value="" style="endArrow=none;html=1;rounded=0;hachureGap=4;fontFamily=Architects Daughter;fontSource=https%3A%2F%2Ffonts.googleapis.com%2Fcss%3Ffamily%3DArchitects%2BDaughter;fillColor=#76608a;strokeColor=#432D57;strokeWidth=6;endFill=0;entryX=0;entryY=0.5;entryDx=0;entryDy=0;" edge="1" parent="1">
          <mxGeometry width="50" height="50" relative="1" as="geometry">
            <mxPoint x="770" y="309.5" as="sourcePoint" />
            <mxPoint x="920" y="310" as="targetPoint" />
          </mxGeometry>
        </mxCell>
        <mxCell id="P95oDodgm_lWHTKzFJ_f-10" value="ORIGEM MULTICAST" style="text;html=1;whiteSpace=wrap;overflow=hidden;rounded=0;fontFamily=Helvetica;fontStyle=1;fontSize=15;" vertex="1" parent="1">
          <mxGeometry x="40" y="200" width="170" height="30" as="geometry" />
        </mxCell>
        <mxCell id="P95oDodgm_lWHTKzFJ_f-11" value="&lt;font style=&quot;font-size: 16px;&quot; face=&quot;Helvetica&quot;&gt;&lt;b&gt;PIM&lt;/b&gt;&lt;/font&gt;" style="text;html=1;whiteSpace=wrap;overflow=hidden;rounded=0;fontFamily=Architects Daughter;fontSource=https%3A%2F%2Ffonts.googleapis.com%2Fcss%3Ffamily%3DArchitects%2BDaughter;" vertex="1" parent="1">
          <mxGeometry x="394" y="390" width="40" height="30" as="geometry" />
        </mxCell>
        <mxCell id="P95oDodgm_lWHTKzFJ_f-12" value="&lt;font face=&quot;Helvetica&quot;&gt;&lt;span&gt;IGMP&lt;/span&gt;&lt;/font&gt;" style="text;html=1;whiteSpace=wrap;overflow=hidden;rounded=0;fontFamily=Architects Daughter;fontSource=https%3A%2F%2Ffonts.googleapis.com%2Fcss%3Ffamily%3DArchitects%2BDaughter;fontSize=16;fontStyle=1" vertex="1" parent="1">
          <mxGeometry x="720" y="400" width="60" height="30" as="geometry" />
        </mxCell>
        <mxCell id="P95oDodgm_lWHTKzFJ_f-13" value="" style="shape=curlyBracket;whiteSpace=wrap;html=1;rounded=1;labelPosition=left;verticalLabelPosition=middle;align=right;verticalAlign=middle;hachureGap=4;fontFamily=Architects Daughter;fontSource=https%3A%2F%2Ffonts.googleapis.com%2Fcss%3Ffamily%3DArchitects%2BDaughter;rotation=-90;strokeWidth=3;fillColor=#76608a;fontColor=#ffffff;strokeColor=#432D57;" vertex="1" parent="1">
          <mxGeometry x="404" y="270" width="20" height="190" as="geometry" />
        </mxCell>
        <mxCell id="P95oDodgm_lWHTKzFJ_f-14" value="" style="endArrow=none;html=1;rounded=0;hachureGap=4;fontFamily=Architects Daughter;fontSource=https%3A%2F%2Ffonts.googleapis.com%2Fcss%3Ffamily%3DArchitects%2BDaughter;strokeWidth=4;dashed=1;" edge="1" parent="1">
          <mxGeometry width="50" height="50" relative="1" as="geometry">
            <mxPoint x="120" y="480" as="sourcePoint" />
            <mxPoint x="120" y="360" as="targetPoint" />
          </mxGeometry>
        </mxCell>
        <mxCell id="P95oDodgm_lWHTKzFJ_f-15" value="" style="endArrow=none;html=1;rounded=0;hachureGap=4;fontFamily=Architects Daughter;fontSource=https%3A%2F%2Ffonts.googleapis.com%2Fcss%3Ffamily%3DArchitects%2BDaughter;strokeWidth=4;dashed=1;" edge="1" parent="1">
          <mxGeometry width="50" height="50" relative="1" as="geometry">
            <mxPoint x="960" y="480" as="sourcePoint" />
            <mxPoint x="960" y="360" as="targetPoint" />
          </mxGeometry>
        </mxCell>
        <mxCell id="P95oDodgm_lWHTKzFJ_f-16" value="" style="endArrow=classic;html=1;rounded=0;hachureGap=4;fontFamily=Architects Daughter;fontSource=https%3A%2F%2Ffonts.googleapis.com%2Fcss%3Ffamily%3DArchitects%2BDaughter;strokeWidth=5;endFill=1;startArrow=classic;startFill=1;jumpStyle=none;fillColor=#76608a;strokeColor=#432D57;" edge="1" parent="1">
          <mxGeometry width="50" height="50" relative="1" as="geometry">
            <mxPoint x="960" y="480" as="sourcePoint" />
            <mxPoint x="120" y="480" as="targetPoint" />
          </mxGeometry>
        </mxCell>
        <mxCell id="P95oDodgm_lWHTKzFJ_f-17" value="" style="endArrow=none;html=1;rounded=0;hachureGap=4;fontFamily=Architects Daughter;fontSource=https%3A%2F%2Ffonts.googleapis.com%2Fcss%3Ffamily%3DArchitects%2BDaughter;strokeWidth=4;dashed=1;" edge="1" parent="1">
          <mxGeometry width="50" height="50" relative="1" as="geometry">
            <mxPoint x="309.5" y="480" as="sourcePoint" />
            <mxPoint x="310" y="360" as="targetPoint" />
          </mxGeometry>
        </mxCell>
        <mxCell id="P95oDodgm_lWHTKzFJ_f-18" value="" style="endArrow=none;html=1;rounded=0;hachureGap=4;fontFamily=Architects Daughter;fontSource=https%3A%2F%2Ffonts.googleapis.com%2Fcss%3Ffamily%3DArchitects%2BDaughter;strokeWidth=4;dashed=1;" edge="1" parent="1">
          <mxGeometry width="50" height="50" relative="1" as="geometry">
            <mxPoint x="519.5" y="480" as="sourcePoint" />
            <mxPoint x="520" y="360" as="targetPoint" />
          </mxGeometry>
        </mxCell>
        <mxCell id="P95oDodgm_lWHTKzFJ_f-19" value="" style="shape=curlyBracket;whiteSpace=wrap;html=1;rounded=1;labelPosition=left;verticalLabelPosition=middle;align=right;verticalAlign=middle;hachureGap=4;fontFamily=Architects Daughter;fontSource=https%3A%2F%2Ffonts.googleapis.com%2Fcss%3Ffamily%3DArchitects%2BDaughter;rotation=-90;strokeWidth=3;fillColor=#76608a;fontColor=#ffffff;strokeColor=#432D57;" vertex="1" parent="1">
          <mxGeometry x="726.25" y="158.75" width="20" height="412.5" as="geometry" />
        </mxCell>
        <mxCell id="P95oDodgm_lWHTKzFJ_f-20" value="FHR - FIRST HOP ROUTER" style="text;html=1;whiteSpace=wrap;overflow=hidden;rounded=0;fontFamily=Helvetica;fontSize=16;fontStyle=1;align=center;" vertex="1" parent="1">
          <mxGeometry x="244" y="200" width="136" height="40" as="geometry" />
        </mxCell>
        <mxCell id="P95oDodgm_lWHTKzFJ_f-21" value="LOCAL MULTICAST ROUTER" style="text;html=1;whiteSpace=wrap;overflow=hidden;rounded=0;fontFamily=Helvetica;fontSize=16;fontStyle=1;align=center;" vertex="1" parent="1">
          <mxGeometry x="440" y="200" width="160" height="40" as="geometry" />
        </mxCell>
        <mxCell id="P95oDodgm_lWHTKzFJ_f-22" value="IGMP SNOOP&lt;br&gt;SWITCH LAYER 2" style="text;html=1;whiteSpace=wrap;overflow=hidden;rounded=0;fontFamily=Helvetica;fontSize=16;fontStyle=1;align=center;" vertex="1" parent="1">
          <mxGeometry x="650" y="195" width="160" height="40" as="geometry" />
        </mxCell>
        <mxCell id="P95oDodgm_lWHTKzFJ_f-23" value="" style="shape=curlyBracket;whiteSpace=wrap;html=1;rounded=1;labelPosition=left;verticalLabelPosition=middle;align=right;verticalAlign=middle;hachureGap=4;fontFamily=Architects Daughter;fontSource=https%3A%2F%2Ffonts.googleapis.com%2Fcss%3Ffamily%3DArchitects%2BDaughter;rotation=-90;strokeWidth=3;fillColor=#76608a;fontColor=#ffffff;strokeColor=#432D57;" vertex="1" parent="1">
          <mxGeometry x="394" y="420" width="20" height="190" as="geometry" />
        </mxCell>
        <mxCell id="P95oDodgm_lWHTKzFJ_f-24" value="" style="shape=curlyBracket;whiteSpace=wrap;html=1;rounded=1;labelPosition=left;verticalLabelPosition=middle;align=right;verticalAlign=middle;hachureGap=4;fontFamily=Architects Daughter;fontSource=https%3A%2F%2Ffonts.googleapis.com%2Fcss%3Ffamily%3DArchitects%2BDaughter;rotation=-90;strokeWidth=3;fillColor=#76608a;fontColor=#ffffff;strokeColor=#432D57;" vertex="1" parent="1">
          <mxGeometry x="726.25" y="308.75" width="20" height="412.5" as="geometry" />
        </mxCell>
        <mxCell id="P95oDodgm_lWHTKzFJ_f-25" value="&lt;font face=&quot;Helvetica&quot;&gt;&lt;span&gt;LAYER 2&lt;br&gt;&lt;/span&gt;&lt;/font&gt;" style="text;html=1;whiteSpace=wrap;overflow=hidden;rounded=0;fontFamily=Architects Daughter;fontSource=https%3A%2F%2Ffonts.googleapis.com%2Fcss%3Ffamily%3DArchitects%2BDaughter;fontStyle=1;fontSize=16;" vertex="1" parent="1">
          <mxGeometry x="701.25" y="555" width="70" height="30" as="geometry" />
        </mxCell>
        <mxCell id="P95oDodgm_lWHTKzFJ_f-26" value="&lt;font face=&quot;Helvetica&quot;&gt;&lt;span&gt;LAYER 3&lt;br&gt;&lt;/span&gt;&lt;/font&gt;" style="text;html=1;whiteSpace=wrap;overflow=hidden;rounded=0;fontFamily=Architects Daughter;fontSource=https%3A%2F%2Ffonts.googleapis.com%2Fcss%3Ffamily%3DArchitects%2BDaughter;fontStyle=1;fontSize=16;" vertex="1" parent="1">
          <mxGeometry x="369" y="555" width="70" height="30" as="geometry" />
        </mxCell>
        <mxCell id="P95oDodgm_lWHTKzFJ_f-27" value="" style="rounded=1;whiteSpace=wrap;html=1;hachureGap=4;fontFamily=Architects Daughter;fontSource=https%3A%2F%2Ffonts.googleapis.com%2Fcss%3Ffamily%3DArchitects%2BDaughter;fillColor=#6d8764;fontColor=#ffffff;strokeColor=#3A5431;" vertex="1" parent="1">
          <mxGeometry x="770" y="300" width="20" height="20" as="geometry" />
        </mxCell>
        <mxCell id="P95oDodgm_lWHTKzFJ_f-28" value="" style="shape=flexArrow;endArrow=none;html=1;rounded=0;hachureGap=4;fontFamily=Architects Daughter;fontSource=https%3A%2F%2Ffonts.googleapis.com%2Fcss%3Ffamily%3DArchitects%2BDaughter;strokeWidth=5;fillColor=#6d8764;strokeColor=#3A5431;width=0;endSize=6.38;endWidth=11;startArrow=block;startFill=0;startWidth=11;startSize=6.38;" edge="1" parent="1" target="P95oDodgm_lWHTKzFJ_f-29">
          <mxGeometry width="50" height="50" relative="1" as="geometry">
            <mxPoint x="790" y="292" as="sourcePoint" />
            <mxPoint x="850" y="262" as="targetPoint" />
          </mxGeometry>
        </mxCell>
        <mxCell id="P95oDodgm_lWHTKzFJ_f-29" value="PEDIDOS IGMP" style="text;html=1;whiteSpace=wrap;overflow=hidden;rounded=0;fontFamily=Helvetica;fontSize=16;fontStyle=1;align=center;" vertex="1" parent="1">
          <mxGeometry x="832" y="220" width="160" height="40" as="geometry" />
        </mxCell>
        <mxCell id="P95oDodgm_lWHTKzFJ_f-30" value="" style="shape=curlyBracket;whiteSpace=wrap;html=1;rounded=1;labelPosition=left;verticalLabelPosition=middle;align=right;verticalAlign=middle;hachureGap=4;fontFamily=Architects Daughter;fontSource=https%3A%2F%2Ffonts.googleapis.com%2Fcss%3Ffamily%3DArchitects%2BDaughter;rotation=-90;strokeWidth=3;fillColor=#76608a;fontColor=#ffffff;strokeColor=#432D57;" vertex="1" parent="1">
          <mxGeometry x="530" y="190" width="20" height="840" as="geometry" />
        </mxCell>
        <mxCell id="P95oDodgm_lWHTKzFJ_f-31" value="&lt;font face=&quot;Helvetica&quot;&gt;TRAFEGO UNICAST&amp;nbsp;&lt;br&gt;&lt;/font&gt;" style="text;html=1;whiteSpace=wrap;overflow=hidden;rounded=0;fontFamily=Architects Daughter;fontSource=https%3A%2F%2Ffonts.googleapis.com%2Fcss%3Ffamily%3DArchitects%2BDaughter;fontStyle=1;fontSize=16;" vertex="1" parent="1">
          <mxGeometry x="454.75" y="640" width="170.5" height="30" as="geometry" />
        </mxCell>
      </root>
    </mxGraphModel>
  </diagram>
</mxfile>
